<svg xmlns="http://www.w3.org/2000/svg" version="1.1"><polyline points="119.0,2.5,120.5,15.0" stroke="black" stroke-width="2" fill="none" />
<polyline points="140.0,4.0,152.0,16.0" stroke="black" stroke-width="2" fill="none" />
<polyline points="156.5,13.5,150.5,1.0" stroke="black" stroke-width="2" fill="none" />
<polyline points="141.0,2.5,151.5,14.5,161.5,33.5,157.0,45.5,157.0,57.0,156.5,69.0,161.0,69.0" stroke="black" stroke-width="2" fill="none" />
<polyline points="161.0,56.0,160.5,44.0" stroke="black" stroke-width="2" fill="none" />
<polyline points="173.5,19.0,181.0,7.0,177.5,11.5" stroke="black" stroke-width="2" fill="none" />
<polyline points="178.0,13.0,178.0,24.5" stroke="black" stroke-width="2" fill="none" />
<polyline points="212.5,3.5,223.0,20.0,222.5,32.0,221.0,44.0,224.0,53.5,215.0,62.5,213.0,74.0,216.0,88.0,208.5,100.0,213.5,111.5,224.0,116.0,215.0,122.0,216.5,130.5,224.0,138.0,221.0,150.0,217.0,151.0,215.0,163.0,210.5,175.0,205.5,187.0,211.5,190.5,204.0,194.0,201.0,205.5,201.5,216.5,198.5,228.5,193.0,240.5,199.0,249.5,193.0,262.0,203.5,263.5,197.5,268.0,202.0,280.0,212.5,295.0,206.5,304.0,216.0,316.0,225.0,328.0,235.5,340.0,244.5,351.5,241.5,364.0,238.5,376.0,239.5,391.0,241.0,403.0,255.5,416.5,254.5,428.5,251.5,440.5,254.5,452.5,250.5,455.5,253.5,467.0,253.5,479.5,235.0,486.5,227.5,498.5,225.5,512.0,228.5,513.5,239.0,521.0,246.5,533.0,261.5,551.0,272.0,547.0,284.0,541.0,296.0,536.0,297.5,524.0,299.0,522.5,300.5,542.0,287.0,548.0,279.5,560.0,273.5,571.5,281.0,589.5,273.0,601.5,273.0,613.5,277.5,625.5" stroke="black" stroke-width="2" fill="none" />
<polyline points="274.5,621.5,286.5,633.5,298.5,636.5,310.5,634.5,322.0,628.5,334.0,618.0,346.0,618.0,342.0,630.0,339.0,634.5,331.5,654.5,331.5,644.0,339.0,643.5,348.0,627.5,354.0,626.0,364.5,619.0,366.0,628.0,354.0,640.0,346.5,652.0,340.5,663.5,331.5,675.5,316.5,687.0,313.0,699.0,328.0,702.5,338.0,696.0" stroke="black" stroke-width="2" fill="none" />
<polyline points="354.0,700.5,366.0,720.0,378.0,727.0,396.0,727.5,408.0,727.5,420.5,722.0" stroke="black" stroke-width="2" fill="none" />
<polyline points="451.5,690.5,463.0,702.0" stroke="black" stroke-width="2" fill="none" />
<polyline points="477.5,696.5,480.5,678.0,475.5,676.5,489.5,669.0,470.0,668.0,464.5,671.0,461.5,659.5,453.0,647.5,445.5,635.0,437.5,623.5,430.0,611.5,418.0,604.0,416.5,601.5" stroke="black" stroke-width="2" fill="none" />
<polyline points="425.5,609.0,437.5,609.0,446.0,621.0,459.5,633.0,457.5,645.0,466.5,648.0,466.5,660.0,454.0,663.0,461.5,674.5,464.0,676.0,468.5,680.5,473.0,672.5,481.0,683.0,493.5,680.0" stroke="black" stroke-width="2" fill="none" />
<polyline points="489.0,672.0,481.5,681.5,469.5,686.0,457.5,675.5,445.5,654.0,433.0,635.0,421.0,639.5" stroke="black" stroke-width="2" fill="none" />
<polyline points="431.5,633.5,440.5,645.5,447.0,657.5,453.0,670.0,464.0,682.0,471.0,694.5,454.5,703.5,466.5,706.5,478.5,694.5,490.5,690.0" stroke="black" stroke-width="2" fill="none" />
<polyline points="495.5,680.0,494.0,675.5,491.0,663.5" stroke="black" stroke-width="2" fill="none" />
<polyline points="499.0,659.5,505.0,671.5,497.5,684.0" stroke="black" stroke-width="2" fill="none" />
<polyline points="452.0,690.0,450.5,702.0" stroke="black" stroke-width="2" fill="none" />
<polyline points="410.0,663.0,398.0,664.5" stroke="black" stroke-width="2" fill="none" />
<polyline points="398.0,662.5,402.5,653.5" stroke="black" stroke-width="2" fill="none" />
<polyline points="386.0,656.5,388.0,658.0,382.0,667.0,386.5,679.0,391.0,685.0,397.0,700.5" stroke="black" stroke-width="2" fill="none" />
<polyline points="399.5,681.0,387.5,675.0" stroke="black" stroke-width="2" fill="none" />
<polyline points="379.0,686.0,391.0,690.5" stroke="black" stroke-width="2" fill="none" />
<polyline points="396.5,689.0,402.5,678.5,406.0,669.0,398.5,666.0,392.5,654.0,378.0,663.0" stroke="black" stroke-width="2" fill="none" />
<polyline points="375.0,662.5,386.5,650.0,386.0,650.0,374.0,662.0,373.5,673.5,375.0,685.5,381.5,698.0,388.0,698.0,400.0,695.5,412.0,690.0,407.5,676.5" stroke="black" stroke-width="2" fill="none" />
<polyline points="365.5,649.0,353.5,674.0" stroke="black" stroke-width="2" fill="none" />
<polyline points="361.5,632.5,365.0,638.5,364.0,650.5,358.0,662.5,353.0,675.0,353.0,687.0,353.0,699.5,358.0,711.5,368.5,723.5" stroke="black" stroke-width="2" fill="none" />
<polyline points="367.0,631.0,379.0,625.0" stroke="black" stroke-width="2" fill="none" />
<polyline points="351.5,610.0,353.0,600.5,342.5,613.0,325.0,625.0" stroke="black" stroke-width="2" fill="none" />
<polyline points="309.0,658.5,297.0,657.5,285.0,663.5" stroke="black" stroke-width="2" fill="none" />
<polyline points="300.5,659.0,287.0,663.0,285.5,676.5,299.0,688.5" stroke="black" stroke-width="2" fill="none" />
<polyline points="285.5,680.0,297.5,689.5,309.5,688.0,328.0,679.5,340.0,666.0,351.5,643.5,364.0,628.5,376.5,623.5,384.0,624.5,391.0,633.5" stroke="black" stroke-width="2" fill="none" />
<polyline points="370.5,611.5,366.0,607.0,346.5,592.0,356.0,572.5,344.5,551.5,326.5,547.0" stroke="black" stroke-width="2" fill="none" />
<polyline points="308.0,541.5,312.5,549.0,323.0,556.0,326.0,567.5,329.0,579.5,329.0,591.5,317.0,603.0,306.5,613.5,308.0,618.0,313.0,619.5,325.5,615.0,326.5,608.0,330.0,608.0,348.0,605.0,359.5,601.0,371.5,599.5,371.5,602.5,383.5,607.0,397.0,598.0,405.0,602.5,411.0,595.0,419.5,592.0,431.0,599.5,443.0,599.5,454.5,606.5,465.0,611.0,468.0,609.5,474.5,620.0,476.5,624.5,488.5,630.5,501.0,627.5,511.0,624.0" stroke="black" stroke-width="2" fill="none" />
<polyline points="497.5,625.0,493.0,621.5,490.0,608.0,494.5,596.0,495.5,603.5,493.5,596.0,490.5,623.5,480.0,629.5,465.0,617.5,448.0,605.5,449.5,592.0,460.0,586.0,461.5,574.0,466.0,562.0,464.5,554.5,464.5,544.0,482.5,542.0,484.0,545.0,472.0,548.0" stroke="black" stroke-width="2" fill="none" />
<polyline points="469.5,545.5,480.0,535.0,469.0,546.5,479.5,550.5,473.5,557.5,479.5,569.0,476.5,560.0,488.0,556.0,492.0,557.5" stroke="black" stroke-width="2" fill="none" />
<polyline points="499.0,569.5,503.5,557.0,498.0,570.0,485.5,575.5,491.5,566.5,491.0,561.0,496.5,549.0,494.0,540.0,489.5,538.5,489.5,534.0,477.5,532.5,465.5,537.0,453.5,548.0,441.5,556.5,423.5,549.5,416.0,557.0,409.5,566.0,391.5,575.0,385.5,572.0,375.5,578.0,363.5,573.5,352.0,568.0,347.5,580.0,341.5,591.0,337.0,589.5,335.5,595.5,345.5,586.5,332.0,575.0,347.0,572.5,350.0,563.0,356.0,561.5,361.0,552.0,361.0,540.5,361.0,528.0,362.0,516.0,359.0,503.5,363.5,492.5,357.5,480.5,357.5,480.5" stroke="black" stroke-width="2" fill="none" />
<polyline points="363.5,488.5,375.5,496.0" stroke="black" stroke-width="2" fill="none" />
<polyline points="371.5,483.5,359.0,476.0,347.0,474.5,334.5,478.5,322.5,492.5" stroke="black" stroke-width="2" fill="none" />
<polyline points="334.0,487.0,346.0,483.5,340.5,476.0,325.5,488.0,323.0,500.0,326.0,511.5,339.5,523.5,350.5,528.0,347.5,531.0" stroke="black" stroke-width="2" fill="none" />
<polyline points="367.5,526.0,375.0,517.0,373.5,529.0,364.5,538.0,381.0,536.5,380.5,532.0,370.0,536.5,376.0,537.5,395.0,547.0,411.5,532.0,414.5,526.0" stroke="black" stroke-width="2" fill="none" />
<polyline points="417.5,514.0,428.0,510.5,422.0,524.0,422.0,533.0,408.5,545.0,406.5,557.0,418.5,560.0" stroke="black" stroke-width="2" fill="none" />
<polyline points="432.0,581.0,432.0,570.5,424.5,584.0,420.0,584.0,430.5,572.0,446.5,572.5,454.0,569.0,446.5,581.0,458.0,595.5,468.5,598.5,479.0,610.5,487.5,622.5" stroke="black" stroke-width="2" fill="none" />
<polyline points="498.5,628.0,510.5,616.0,509.0,604.0,508.5,599.0,496.5,592.5,484.0,601.0,478.0,608.5,466.0,595.0,454.5,589.5,452.0,585.0,443.5,591.5,442.0,585.5,430.5,583.5,418.5,588.0,417.0,579.0,405.0,579.0,400.5,564.0,424.5,568.5,432.5,557.0,434.0,545.0,434.0,533.0,433.5,521.0,432.0,509.0,437.0,497.0,440.0,488.0,428.0,495.0,416.0,505.5" stroke="black" stroke-width="2" fill="none" />
<polyline points="418.5,485.5,430.5,478.0,443.0,475.0,455.0,476.5,467.0,484.0,465.5,496.0,462.5,508.0,451.5,519.5,445.5,531.5,449.5,527.0,455.5,513.5" stroke="black" stroke-width="2" fill="none" />
<polyline points="459.5,504.5,447.5,516.5,443.0,527.0,452.0,525.5,461.0,515.0,468.5,503.0,470.0,491.0,459.5,486.5,448.0,483.5" stroke="black" stroke-width="2" fill="none" />
<polyline points="449.5,495.0,437.5,501.0" stroke="black" stroke-width="2" fill="none" />
<polyline points="435.0,495.5,447.0,491.5,458.0,491.5,459.5,494.5,458.5,507.0,452.5,503.0,438.0,506.0,446.0,518.0" stroke="black" stroke-width="2" fill="none" />
<polyline points="451.0,507.5,439.0,507.5" stroke="black" stroke-width="2" fill="none" />
<polyline points="424.5,529.5,420.0,547.5,408.5,546.0,399.5,556.5,398.0,551.5,384.0,549.0,372.0,547.5,358.5,554.5,346.5,553.0,334.0,546.5,329.0,537.5,316.5,532.5,305.0,537.0,293.0,541.5,279.5,538.5,278.0,543.0,287.0,534.5,294.5,530.0,295.0,522.5,298.0,510.5,292.5,510.5,297.0,498.5,297.5,489.5,285.5,483.5" stroke="black" stroke-width="2" fill="none" />
<polyline points="275.0,502.5,273.5,514.5" stroke="black" stroke-width="2" fill="none" />
<polyline points="271.0,500.5,271.0,503.5,268.0,515.5,271.0,521.5,268.0,533.5,261.0,535.0" stroke="black" stroke-width="2" fill="none" />
<polyline points="288.0,508.5,277.5,508.5,265.5,515.5,261.0,527.5,253.0,523.0,260.5,527.0,259.0,515.0,248.5,505.5,253.0,493.5,259.0,487.5,268.5,481.5,265.5,474.0,268.5,463.5,267.0,451.5,267.0,439.0,272.5,436.5,276.0,430.5,279.0,418.5,280.5,408.5,271.5,404.0,273.0,390.5,272.0,378.5,273.5,366.0,273.5,354.0,282.5,341.0,278.0,339.5,282.5,327.5,288.5,315.5,291.5,304.0,297.5,301.5,305.0,291.0,311.5,279.0,314.5,266.5,318.5,254.5,320.0,242.0,321.5,230.0,321.0,218.0,322.5,206.0,319.5,195.5,312.5,184.0,309.5,172.0,314.0,173.5,314.0,161.5,299.5,152.0,305.5,146.5,305.5,136.0,297.0,130.0,309.0,124.0,306.0,112.0,313.5,109.0,315.0,97.0,316.0,85.0,318.0,72.5,317.5,60.5,305.5,54.5,310.0,42.5,307.0,30.5,313.0,18.5,321.0,11.0,327.0,4.0,315.0,20.5" stroke="black" stroke-width="2" fill="none" />
<polyline points="306.5,25.5,311.0,28.5,312.5,41.0" stroke="black" stroke-width="2" fill="none" />
<polyline points="317.5,61.5,321.5,67.5,326.0,73.5,326.5,85.5,322.0,97.5,318.0,109.5,310.5,121.5,313.0,125.0,313.0,137.0,313.5,149.0,308.0,161.5,309.0,167.5,295.5,173.0,303.0,185.0,306.0,196.5,300.0,202.5,295.0,213.0,281.0,213.0,282.5,231.0,295.0,230.0,296.5,235.5,316.0,231.5,320.0,212.0,324.5,231.0,322.5,237.0,322.5,249.0,328.5,264.0,325.5,276.0,313.5,282.0,314.0,294.5,324.5,278.0" stroke="black" stroke-width="2" fill="none" />
<polyline points="341.5,285.0,340.0,297.0,326.0,309.0,317.0,321.0,324.5,310.5" stroke="black" stroke-width="2" fill="none" />
<polyline points="339.5,311.0,351.0,318.5,364.5,324.0,358.0,336.0,347.5,337.5,355.0,339.0,349.0,350.5,351.5,355.0,355.0,364.0,346.0,368.5,337.0,380.0,330.5,392.5,327.5,394.0,324.5,407.5,332.0,409.0,329.0,421.0,333.5,421.0,338.0,423.0,353.0,435.0,334.0,448.5,323.0,460.5,312.5,471.0,325.0,467.5,336.5,458.5,348.5,444.5,353.0,454.5,363.5,459.5,375.5,467.0" stroke="black" stroke-width="2" fill="none" />
<polyline points="381.5,470.5,386.0,465.0,369.5,455.5,360.0,443.5,363.0,440.5,376.5,438.0,387.0,423.0,387.5,414.0,384.5,402.0,390.5,381.0,398.0,369.5,402.5,359.0,399.5,353.0,406.0,343.5,403.0,337.0,411.5,330.0,407.5,328.5,415.0,325.5,409.0,316.0,406.0,316.0,405.5,323.5,393.0,336.5,393.0,347.0,385.5,356.0,379.5,354.5,375.5,358.5,378.5,348.0,379.5,336.0,378.0,324.0,382.5,312.0,381.0,306.0,390.0,294.0,394.5,294.0,401.0,282.0,402.5,270.0,405.5,257.0,399.5,249.5,392.0,248.0,389.0,243.5,395.0,231.5,402.5,228.5,395.0,223.0,392.0,217.0,398.0,206.0,402.5,200.0,405.5,194.0,410.0,186.5,401.0,174.5,400.0,159.5,415.0,138.5,421.5,127.0,414.0,120.5,415.5,104.5,410.5,92.5,407.5,89.5,418.0,86.5,410.0,73.0" stroke="black" stroke-width="2" fill="none" />
<polyline points="408.5,70.0,420.5,62.5,432.0,65.0,444.0,72.5,456.0,83.0,468.5,96.5" stroke="black" stroke-width="2" fill="none" />
<polyline points="471.0,99.5,477.0,111.5,478.5,119.0,478.5,131.0,476.5,143.0,470.5,155.5,451.5,152.0,446.5,165.0,458.5,154.5,460.0,148.5,472.0,139.5" stroke="black" stroke-width="2" fill="none" />
<polyline points="465.5,147.0,471.5,145.5,468.0,128.0,462.0,129.5" stroke="black" stroke-width="2" fill="none" />
<polyline points="443.0,130.0,431.0,134.5,428.0,140.5,420.5,135.0,411.5,120.0,410.0,131.0,398.0,128.5" stroke="black" stroke-width="2" fill="none" />
<polyline points="391.0,126.5,403.0,125.0,391.5,133.5,395.0,147.0,384.5,157.0" stroke="black" stroke-width="2" fill="none" />
<polyline points="368.5,148.5,381.0,150.0,399.0,143.5" stroke="black" stroke-width="2" fill="none" />
<polyline points="398.0,114.0,410.0,117.0,422.0,112.5,433.5,112.5" stroke="black" stroke-width="2" fill="none" />
<polyline points="409.0,103.5,421.0,101.0,420.5,108.5,432.5,103.5,444.0,100.5,456.0,91.5" stroke="black" stroke-width="2" fill="none" />
<polyline points="452.5,93.5,445.0,107.0,452.5,104.0" stroke="black" stroke-width="2" fill="none" />
<polyline points="443.0,87.0,443.0,95.0,441.5,82.5,431.5,85.0,431.5,80.5,424.0,72.0,424.0,76.5,418.0,87.0,406.0,85.5,404.5,88.5,388.0,96.0,376.0,107.0" stroke="black" stroke-width="2" fill="none" />
<polyline points="377.0,107.5,395.0,116.5,386.0,122.0,385.0,134.0,387.5,146.0,392.0,158.0,401.0,152.0,413.0,149.0,414.0,154.0,421.5,158.5,427.5,158.5,432.0,161.5,447.0,166.0,459.0,168.0,471.0,160.0" stroke="black" stroke-width="2" fill="none" />
<polyline points="478.0,193.5,488.5,207.5,489.0,219.5,484.5,231.5" stroke="black" stroke-width="2" fill="none" />
<polyline points="489.0,230.0,496.5,218.0,493.5,205.5,487.5,202.5" stroke="black" stroke-width="2" fill="none" />
<polyline points="487.0,226.5,475.5,232.5" stroke="black" stroke-width="2" fill="none" />
<polyline points="472.5,231.5,475.5,228.5,470.5,240.0,473.5,252.0,479.0,264.0,495.0,270.0,499.5,282.5,501.5,305.5,489.5,321.0,481.0,327.5,483.5,341.0,480.5,353.0,478.0,368.0,472.0,370.5,464.0,382.0,461.0,383.0" stroke="black" stroke-width="2" fill="none" />
<polyline points="474.5,378.0,458.0,366.0" stroke="black" stroke-width="2" fill="none" />
<polyline points="468.0,346.0,467.5,334.5,468.5,315.0,460.5,307.5,456.0,301.5,444.0,292.0" stroke="black" stroke-width="2" fill="none" />
<polyline points="439.5,294.0,444.5,306.0,434.0,307.5,436.0,321.0,439.0,332.0,437.5,350.0,422.5,357.5,418.5,369.5,424.5,374.0,432.5,377.5,433.0,383.5,440.0,388.0,438.0,400.0,447.0,412.0,434.5,419.5,441.5,430.5,440.0,442.5,446.0,454.0" stroke="black" stroke-width="2" fill="none" />
<polyline points="473.5,446.5,469.0,466.5,472.0,462.0,480.5,450.0,482.0,454.5,476.0,460.0,492.0,451.0,480.5,449.5,468.0,461.5,464.0,466.0,467.0,454.0,476.0,442.5,471.5,442.5,459.5,457.5,449.0,451.0,443.0,438.5,450.5,425.0,449.0,413.0,456.5,408.5,462.5,390.5,456.5,384.5,452.0,372.5,459.5,360.5,476.0,344.0,476.0,332.0,476.0,320.0,477.5,308.5,464.0,296.5,452.0,293.5,448.5,288.5,447.0,276.0,452.5,274.0,446.5,265.0,449.5,256.0,453.0,256.5,453.5,244.5,451.0,231.5,458.5,222.5,469.5,213.0,483.0,201.0,487.5,196.5,475.5,208.5,463.5,217.5" stroke="black" stroke-width="2" fill="none" />
<polyline points="469.5,243.0,474.5,238.5,477.5,243.5,482.0,255.5" stroke="black" stroke-width="2" fill="none" />
<polyline points="480.5,251.0,492.5,266.0,504.0,280.5,502.5,292.0" stroke="black" stroke-width="2" fill="none" />
<polyline points="503.0,278.0,491.0,274.0" stroke="black" stroke-width="2" fill="none" />
<polyline points="483.5,299.0,471.5,290.0,459.5,270.5" stroke="black" stroke-width="2" fill="none" />
<polyline points="453.0,272.5,456.0,286.0,459.5,296.0,478.5,317.0,487.5,316.5,493.5,327.0" stroke="black" stroke-width="2" fill="none" />
<polyline points="487.0,320.0,489.0,332.0,489.0,338.0" stroke="black" stroke-width="2" fill="none" />
<polyline points="479.5,351.5,467.5,357.5,455.5,366.5,448.0,356.0,442.0,353.0,433.5,357.5,421.5,364.0" stroke="black" stroke-width="2" fill="none" />
<polyline points="420.0,367.5,424.5,352.5,426.0,367.0,444.0,370.0,445.0,382.0,437.0,393.5,445.0,402.5,452.5,411.5,470.5,408.5,484.0,405.5,482.5,417.0,482.5,429.5,498.0,431.0,493.5,437.0,502.5,429.5,510.0,415.5,501.0,427.5" stroke="black" stroke-width="2" fill="none" />
<polyline points="460.5,431.0,463.5,419.0,475.5,407.0,471.0,402.5,459.0,414.5,458.5,420.0,461.0,409.5,483.5,403.5,480.5,391.5,484.5,380.0,489.5,367.5,494.0,355.5,488.0,354.0,497.5,342.5,493.0,343.0,497.5,331.0,496.0,325.0,499.0,313.0,488.5,305.5,481.0,298.0,473.5,292.0,463.0,280.0,458.5,267.5,458.0,256.0,459.5,242.0,455.5,233.0,454.0,220.0,458.5,208.0,454.5,196.0,436.5,206.5" stroke="black" stroke-width="2" fill="none" />
<polyline points="419.0,207.5,426.5,210.0,434.0,221.5,434.0,233.5,423.5,241.0,438.5,247.0,442.0,263.0,438.5,275.5,437.0,287.5,436.0,299.0,438.0,311.0,442.5,323.0,446.5,334.5,451.0,345.0,446.0,343.5,459.0,339.0,478.5,333.5,488.0,353.5,491.0,361.5,496.0,369.5,507.5,372.5" stroke="black" stroke-width="2" fill="none" />
<polyline points="500.0,371.5,505.0,383.5" stroke="black" stroke-width="2" fill="none" />
<polyline points="491.0,380.0,488.0,392.0,477.5,409.5,469.0,421.5,466.0,433.5,466.0,440.5,464.0,450.0,457.5,462.0,442.5,480.0,433.5,492.0,421.5,496.5,426.0,502.5,412.5,507.5,426.5,521.0,423.5,533.0,420.5,545.0,419.0,550.0,423.5,551.0,419.0,562.5,408.5,574.5,403.5,576.0,406.5,585.0,390.0,585.0,393.5,594.5,383.0,606.5,378.5,610.0,375.5,607.0,359.0,613.0,354.5,625.0,345.5,634.0,332.0,637.5,334.0,646.5,325.0,654.0,322.0,666.0,325.0,671.5,314.5,681.0,311.5,682.5,310.0,696.0,311.5,699.0,321.5,706.5,333.5,703.0" stroke="black" stroke-width="2" fill="none" />
<polyline points="285.5,626.0,278.5,614.0,278.5,602.0,271.5,590.0" stroke="black" stroke-width="2" fill="none" />
<polyline points="273.0,602.5,285.5,588.5,297.5,587.0,310.0,598.5" stroke="black" stroke-width="2" fill="none" />
<polyline points="297.0,589.0,285.0,592.0" stroke="black" stroke-width="2" fill="none" />
<polyline points="294.5,595.5,282.5,603.0" stroke="black" stroke-width="2" fill="none" />
<polyline points="256.0,587.0,268.0,585.5,280.5,588.5,301.5,588.5,310.0,600.5,302.5,613.0,290.0,619.0,288.5,616.0,283.5,610.0,289.5,604.0,298.0,601.0,292.0,598.0,284.5,598.5,283.0,610.5,286.0,623.0,287.5,629.0,300.0,630.0,312.5,625.5" stroke="black" stroke-width="2" fill="none" />
<polyline points="335.0,576.0,347.0,585.0,359.0,575.0" stroke="black" stroke-width="2" fill="none" />
<polyline points="361.5,582.5,367.5,572.0,364.5,560.5,368.0,554.5" stroke="black" stroke-width="2" fill="none" />
<polyline points="346.5,524.5,353.0,512.5,355.5,500.5,349.0,492.0,337.0,493.5" stroke="black" stroke-width="2" fill="none" />
<polyline points="337.0,494.0,335.0,506.5,333.5,509.5,345.5,512.5" stroke="black" stroke-width="2" fill="none" />
<polyline points="332.5,516.0,344.5,528.0" stroke="black" stroke-width="2" fill="none" />
<polyline points="364.5,508.5,365.0,520.5,368.5,532.5,364.0,541.5,379.0,546.5,377.5,558.5,373.0,570.0,382.0,558.0" stroke="black" stroke-width="2" fill="none" />
<polyline points="365.5,586.0,354.0,586.0,340.5,577.0,329.0,563.5,338.0,560.5,332.5,557.5,324.5,546.0,332.5,543.0,320.5,541.5,308.5,539.0" stroke="black" stroke-width="2" fill="none" />
<polyline points="297.5,546.5,303.5,551.0,296.0,563.0,288.5,560.0,284.0,567.5,279.0,575.0,279.0,575.5,291.0,560.5,292.5,571.0,301.5,575.5,313.5,574.0,328.5,570.0,341.0,571.5,352.0,564.0,359.5,567.0,372.0,573.0,379.5,567.0,391.0,567.0" stroke="black" stroke-width="2" fill="none" />
<polyline points="405.5,588.5,413.0,600.0,401.0,606.0,408.5,614.0,408.5,617.5,413.0,613.0,425.0,618.0,428.0,604.0,440.0,608.5,444.5,614.5,457.0,617.0,469.0,626.0,481.0,633.5,492.5,637.0,504.5,632.5" stroke="black" stroke-width="2" fill="none" />
<polyline points="491.0,662.0,482.0,669.0,471.5,665.0,459.5,655.0,454.0,647.5,458.0,631.5,450.5,619.5" stroke="black" stroke-width="2" fill="none" />
<polyline points="454.0,617.5,469.0,629.5" stroke="black" stroke-width="2" fill="none" />
<polyline points="456.5,601.0,444.5,597.0,433.0,592.5" stroke="black" stroke-width="2" fill="none" />
<polyline points="440.5,579.0,452.5,579.0,466.0,564.0" stroke="black" stroke-width="2" fill="none" />
<polyline points="470.0,561.5,476.5,573.5,482.5,572.0" stroke="black" stroke-width="2" fill="none" />
<polyline points="490.5,588.0,482.0,600.0,474.5,611.0,479.0,621.5" stroke="black" stroke-width="2" fill="none" />
<polyline points="492.0,593.5,486.0,605.5,491.5,589.0,503.5,590.0" stroke="black" stroke-width="2" fill="none" />
<polyline points="512.0,569.0,509.0,557.5" stroke="black" stroke-width="2" fill="none" />
<polyline points="508.5,572.0,507.0,565.0,505.5,553.5,498.0,541.5" stroke="black" stroke-width="2" fill="none" />
<polyline points="462.0,537.0,451.5,549.0,447.0,561.5,446.0,567.5,447.5,575.0,435.5,584.0,431.0,596.5,419.0,608.0,410.0,610.5,425.0,625.5,423.0,637.5,426.0,649.5,432.0,661.5,435.5,674.0,435.5,686.0,434.0,698.5,428.0,710.5,416.0,722.5" stroke="black" stroke-width="2" fill="none" />
<polyline points="500.0,660.5,487.5,657.5,475.5,662.5,466.5,646.0,454.5,628.0,454.5,634.0,448.5,623.0,436.0,621.5,425.5,619.0,421.5,622.0,419.0,626.5,417.5,620.5,406.0,623.5,397.0,613.0,389.5,619.0,396.0,607.0,405.0,604.0,399.0,592.0" stroke="black" stroke-width="2" fill="none" />
<polyline points="318.0,569.5,318.0,556.5,301.0,556.5" stroke="black" stroke-width="2" fill="none" />
<polyline points="294.5,522.5,283.5,530.0,271.5,538.5,263.5,537.0,262.0,541.5,272.5,541.5,283.5,529.5,282.0,523.0,285.0,511.0,300.0,508.0,298.5,496.0,289.5,495.0,283.5,483.0,280.5,475.5,282.0,465.0,283.5,453.5,274.5,438.5,271.5,442.5" stroke="black" stroke-width="2" fill="none" />
<polyline points="294.0,442.5,305.5,431.5,305.5,440.5" stroke="black" stroke-width="2" fill="none" />
<polyline points="307.0,448.0,294.5,448.0" stroke="black" stroke-width="2" fill="none" />
<polyline points="327.5,466.5,339.5,454.5,359.0,445.5,364.5,435.0,362.5,423.0,364.5,420.0,355.5,415.5,362.5,403.5,359.5,391.5,357.5,379.5,367.5,367.5,355.5,374.5" stroke="black" stroke-width="2" fill="none" />
<polyline points="350.0,367.5,362.0,360.0,352.5,370.5,353.0,383.0,358.0,395.0,372.0,410.5,373.5,422.5,376.5,435.0,367.5,445.5,380.0,454.0" stroke="black" stroke-width="2" fill="none" />
<polyline points="378.0,457.0,366.0,449.5" stroke="black" stroke-width="2" fill="none" />
<polyline points="362.5,464.0,375.0,470.5" stroke="black" stroke-width="2" fill="none" />
<polyline points="394.0,461.0,394.5,449.0,398.5,437.5,403.0,421.0,395.0,412.0,393.5,400.0,384.5,402.0" stroke="black" stroke-width="2" fill="none" />
<polyline points="385.5,395.5,397.5,388.0,409.5,395.5,422.0,398.5,430.0,395.5" stroke="black" stroke-width="2" fill="none" />
<polyline points="403.5,389.5,408.0,402.0,413.5,414.0,430.0,406.5,442.0,408.0,446.5,420.0,459.5,432.0,471.5,432.0,483.5,436.5,490.5,432.0,508.5,424.5" stroke="black" stroke-width="2" fill="none" />
<polyline points="510.0,388.5,505.5,376.0,500.0,364.0" stroke="black" stroke-width="2" fill="none" />
<polyline points="495.0,310.0,483.5,307.0,474.5,304.0,461.5,309.0,449.5,300.0" stroke="black" stroke-width="2" fill="none" />
<polyline points="437.5,311.0,447.0,308.0,456.0,320.0,448.5,326.0,456.0,338.0" stroke="black" stroke-width="2" fill="none" />
<polyline points="454.5,338.0,442.5,327.5" stroke="black" stroke-width="2" fill="none" />
<polyline points="459.0,342.5,468.0,330.5,463.5,317.5,461.0,313.0,450.5,301.0,444.0,288.5,435.0,281.0,433.5,275.0" stroke="black" stroke-width="2" fill="none" />
<polyline points="406.0,285.0,419.0,293.0,411.5,299.0" stroke="black" stroke-width="2" fill="none" />
<polyline points="405.5,322.5,403.5,310.5,416.5,315.0,424.0,306.0,422.5,294.0,431.5,277.5,432.5,265.5,431.0,261.0,431.5,249.0,445.5,249.0,453.0,237.0,445.0,230.0,448.5,218.5,448.5,215.5,447.0,203.5,439.5,200.5,444.0,189.0,444.0,173.5,432.0,181.0,420.0,182.5" stroke="black" stroke-width="2" fill="none" />
<polyline points="444.0,190.0,448.5,183.0" stroke="black" stroke-width="2" fill="none" />
<polyline points="439.0,223.5,427.5,243.0,424.5,231.0,422.0,235.5,429.5,223.5,416.5,224.5" stroke="black" stroke-width="2" fill="none" />
<polyline points="392.5,225.5,409.0,222.5,409.0,234.5,406.5,246.5,403.5,249.5,402.0,254.0" stroke="black" stroke-width="2" fill="none" />
<polyline points="395.5,262.5,384.0,259.5" stroke="black" stroke-width="2" fill="none" />
<polyline points="373.0,243.0,366.5,234.0,354.5,231.0" stroke="black" stroke-width="2" fill="none" />
<polyline points="344.0,216.5,355.0,204.0,352.0,216.0,346.0,226.5,350.5,227.0,355.0,228.5,367.0,231.5,364.5,228.0,366.0,240.0,359.5,252.5,353.5,264.5,340.0,276.5,330.0,288.0,324.5,300.0,313.5,316.5,315.0,310.5,327.0,292.5,357.0,286.0,369.0,278.0,385.5,275.0,380.5,276.5,368.5,285.5,351.0,297.0,351.0,297.5,363.0,290.0,375.0,291.5,391.5,298.5,397.0,301.5,412.0,300.0,425.5,292.5,445.5,306.0,457.5,322.5,460.5,320.0" stroke="black" stroke-width="2" fill="none" />
<polyline points="438.5,348.0,426.5,356.0" stroke="black" stroke-width="2" fill="none" />
<polyline points="408.0,360.0,403.5,371.5,409.5,385.0,426.0,387.0,411.0,396.5,404.0,415.0,414.0,416.5,419.5,423.0,428.5,435.0,419.0,449.0,404.0,449.0,398.0,456.5,398.0,467.0,401.0,466.5,417.0,465.0,418.5,456.0,421.0,451.5,430.0,436.5" stroke="black" stroke-width="2" fill="none" />
<polyline points="441.5,437.5,429.5,439.0,415.0,440.5,403.5,449.5" stroke="black" stroke-width="2" fill="none" />
<polyline points="425.5,464.0,424.0,465.0,425.5,458.0,424.0,446.0,436.0,439.0,433.0,427.0,427.0,415.5,435.0,413.5,418.0,404.5,406.0,396.5,393.5,399.5" stroke="black" stroke-width="2" fill="none" />
<polyline points="376.5,413.5,372.0,401.5,383.5,412.0,395.5,418.0,407.5,409.0,428.5,413.5,434.5,419.5,441.5,424.0" stroke="black" stroke-width="2" fill="none" />
<polyline points="445.5,441.5,438.0,428.5,429.0,422.5,409.5,430.0,406.5,424.0,394.0,424.0,381.5,433.5,372.5,426.0,371.0,415.5,358.0,423.5,346.0,429.0,334.5,429.0,328.5,416.0,322.5,405.5,321.0,394.0,325.5,382.0,336.0,371.5,340.5,362.5,342.0,350.0,342.0,338.0,348.0,325.5,342.0,333.5" stroke="black" stroke-width="2" fill="none" />
<polyline points="351.5,322.0,362.0,335.5,364.0,347.5,358.0,350.5,370.0,350.5" stroke="black" stroke-width="2" fill="none" />
<polyline points="379.5,327.0,379.0,324.0,383.5,336.5,398.0,346.5" stroke="black" stroke-width="2" fill="none" />
<polyline points="402.0,333.0,395.0,342.0,391.5,330.0,393.0,315.5,398.5,301.5,406.0,289.5,409.0,277.5,415.0,272.5,416.0,266.5,414.5,257.5,414.5,245.0,414.5,233.5,421.0,222.0,423.0,211.0,435.0,200.5,431.5,189.0,420.5,183.0,430.5,172.5,426.0,159.0,441.0,149.5,436.5,148.5,444.0,136.0,436.5,140.5,425.0,137.5,418.0,130.0,412.0,129.0,404.5,117.0,398.0,109.5,395.0,103.5,398.0,103.5" stroke="black" stroke-width="2" fill="none" />
<polyline points="369.0,115.5,372.0,101.0,384.0,87.5,396.0,77.0,405.0,84.5,395.5,89.0,392.0,92.0,381.5,98.0,376.0,110.0,378.0,116.0,372.5,132.0,369.5,142.5,380.0,123.5,380.0,105.5,388.5,104.0,400.5,110.0,402.5,98.0,404.0,101.0,413.0,92.0,423.0,88.5,424.5,93.0,429.0,90.0,435.0,97.5,438.0,105.0,457.5,114.0,455.5,113.0,469.0,119.0" stroke="black" stroke-width="2" fill="none" />
<polyline points="474.0,96.5,462.0,81.5,450.0,71.5,438.5,64.0,426.5,58.0,414.0,60.5,402.0,68.0,390.0,77.0,377.5,87.5,365.5,107.0,358.0,105.5,361.0,98.5,356.5,91.5,362.5,79.0,364.0,64.0,365.5,52.0,364.0,40.0,365.0,28.0,371.5,16.0,374.5,4.0,368.5,21.5,353.0,45.5,353.0,47.0,357.0,34.5,361.5,22.0,360.0,10.0,359.5,7.0,347.5,2.5" stroke="black" stroke-width="2" fill="none" />
<polyline points="348.0,1.5,355.5,13.5,355.5,25.5,349.5,37.5,344.0,49.5,345.5,58.5,338.0,70.5,335.0,82.5,334.0,94.5,335.5,106.5,334.0,108.0,346.0,114.0,353.0,111.0,356.0,88.5" stroke="black" stroke-width="2" fill="none" />
<polyline points="367.0,78.5,368.0,62.5,367.5,49.5,369.0,37.5,371.0,25.0,375.5,13.0,381.5,4.0,369.5,26.5" stroke="black" stroke-width="2" fill="none" />
<polyline points="355.0,14.0,346.0,41.0" stroke="black" stroke-width="2" fill="none" />
<polyline points="334.0,65.5,331.0,78.0,330.0,90.5,328.5,102.5,331.5,114.5" stroke="black" stroke-width="2" fill="none" />
<polyline points="303.5,106.0,315.5,88.5" stroke="black" stroke-width="2" fill="none" />
<polyline points="320.0,75.0,316.5,106.5,298.0,120.5,290.5,101.0,292.0,91.5,298.0,79.5,301.0,67.0,299.5,64.0" stroke="black" stroke-width="2" fill="none" />
<polyline points="295.0,78.0,283.0,83.0" stroke="black" stroke-width="2" fill="none" />
<polyline points="285.0,96.5,273.0,105.5" stroke="black" stroke-width="2" fill="none" />
<polyline points="271.0,109.0,278.5,130.0,287.5,116.5,303.0,127.0" stroke="black" stroke-width="2" fill="none" />
<polyline points="292.0,140.5,279.5,137.0" stroke="black" stroke-width="2" fill="none" />
<polyline points="276.5,136.0,288.5,140.5,294.5,151.0,287.0,145.0,295.5,153.5,297.0,146.5,309.0,158.5,319.5,172.0,322.5,184.0,325.0,196.5,328.0,208.5,332.5,220.5,334.5,232.0,336.5,244.0,336.0,256.0,336.0,268.5,328.0,280.5,324.0,281.0,317.5,293.5,306.5,299.5,299.0,311.5,296.0,322.0,287.0,326.0,295.0,332.0,287.0,344.0,284.0,356.0,284.0,374.0,293.0,377.0,291.0,389.5,292.5,392.5,283.5,404.5,289.5,422.5,286.5,434.5,280.5,447.0,276.0,452.5,274.5,464.5,273.0,476.5,271.5,488.5,268.0,494.0,256.5,504.0,250.5,516.0" stroke="black" stroke-width="2" fill="none" />
<polyline points="220.5,532.0,237.5,545.5,240.5,557.5,230.0,568.0,217.0,578.0,209.0,584.0,209.0,595.0,195.5,615.0,192.0,627.0,186.0,640.5,173.5,657.0,169.0,669.5,150.0,677.0,162.0,678.0" stroke="black" stroke-width="2" fill="none" />
<polyline points="170.5,696.0,182.5,697.0" stroke="black" stroke-width="2" fill="none" />
<polyline points="169.5,698.5,181.5,704.5,193.0,707.0,205.0,710.0,216.5,708.5" stroke="black" stroke-width="2" fill="none" />
<polyline points="240.5,702.0,239.0,684.0,224.0,679.0,212.0,674.5,200.0,681.5,193.5,671.0,205.5,664.5,207.5,646.5,205.0,637.5,212.5,625.5,224.5,613.5,206.5,608.5" stroke="black" stroke-width="2" fill="none" />
<polyline points="205.5,619.5,217.5,627.0,212.5,634.5" stroke="black" stroke-width="2" fill="none" />
<polyline points="223.0,624.0,235.0,620.5,235.0,628.5,220.0,641.0,218.0,653.5" stroke="black" stroke-width="2" fill="none" />
<polyline points="240.0,656.5,241.5,647.5,250.5,650.5" stroke="black" stroke-width="2" fill="none" />
<polyline points="248.5,612.0,236.5,600.0,224.0,599.5" stroke="black" stroke-width="2" fill="none" />
<polyline points="226.5,594.5,215.5,592.5,215.5,588.0,209.5,580.5,221.5,562.5,216.5,561.0,220.5,550.0,220.5,545.0,208.5,539.0" stroke="black" stroke-width="2" fill="none" />
<polyline points="207.5,543.5,202.5,542.5,203.0,555.0,210.5,559.5,206.0,578.0,192.5,589.0" stroke="black" stroke-width="2" fill="none" />
<polyline points="200.5,587.5,188.5,598.0,187.0,601.0,174.5,604.0" stroke="black" stroke-width="2" fill="none" />
<polyline points="167.0,584.0,167.0,578.0,179.0,580.5,191.0,583.0" stroke="black" stroke-width="2" fill="none" />
<polyline points="203.0,559.0,215.0,563.5,218.0,553.0" stroke="black" stroke-width="2" fill="none" />
<polyline points="202.0,551.5,214.0,550.0,221.5,554.5,234.0,560.5" stroke="black" stroke-width="2" fill="none" />
<polyline points="264.0,575.0,268.5,573.5,280.5,555.5,286.5,556.0,300.0,550.0,312.0,548.0,320.5,554.0,332.5,558.5,347.5,559.5" stroke="black" stroke-width="2" fill="none" />
<polyline points="350.0,497.5,338.5,497.5" stroke="black" stroke-width="2" fill="none" />
<polyline points="339.0,488.5,330.0,500.5,333.0,511.0,336.5,491.5,348.5,488.5,356.0,491.0,362.0,503.5,373.5,509.0,370.5,506.0,376.5,509.0" stroke="black" stroke-width="2" fill="none" />
<polyline points="366.0,464.0,357.0,453.0,345.0,456.0" stroke="black" stroke-width="2" fill="none" />
<polyline points="350.0,454.5,363.5,466.5,363.5,484.0,377.0,489.5,374.0,496.0,378.5,500.0,378.5,507.5,383.5,518.0,385.5,530.0,388.5,542.5,385.5,556.0,390.0,568.0,376.5,574.0,367.0,586.0,361.0,595.0,344.5,601.0,326.0,601.0,326.0,614.5,318.0,620.5,311.5,620.5,311.5,624.5,301.5,623.0,307.5,605.5,315.0,605.5,327.0,595.0,336.0,605.5,348.0,594.5,360.5,591.5,371.0,584.0,382.0,580.5,391.0,583.5,389.0,592.5,402.0,586.5,414.0,586.5,415.0,575.0,427.5,563.0,441.0,566.0,447.0,567.0,448.5,556.5,461.0,557.0,468.5,557.0,480.5,549.5,500.0,555.5,509.0,555.5" stroke="black" stroke-width="2" fill="none" />
<polyline points="428.0,479.0,416.5,490.5,415.0,502.5,412.5,514.5,409.5,526.5,408.0,538.5,399.0,550.0,391.0,554.5,397.0,566.5,399.0,578.5,390.0,581.5" stroke="black" stroke-width="2" fill="none" />
<polyline points="380.0,444.0,381.5,432.5,385.0,417.0,376.0,414.0,368.0,403.0,356.0,394.0" stroke="black" stroke-width="2" fill="none" />
<polyline points="332.5,409.0,345.0,429.5" stroke="black" stroke-width="2" fill="none" />
<polyline points="325.5,386.5,327.0,390.0,338.5,376.5,340.0,358.5,347.5,334.5,367.5,345.0,379.5,348.5" stroke="black" stroke-width="2" fill="none" />
<polyline points="373.5,335.5,372.0,323.5,358.5,316.0,346.5,314.5" stroke="black" stroke-width="2" fill="none" />
<polyline points="353.5,309.5,365.0,311.5,378.5,313.0,380.0,302.5" stroke="black" stroke-width="2" fill="none" />
<polyline points="408.5,362.0,411.5,374.5,416.0,385.0,425.5,406.0,417.0,418.5,411.0,429.0,403.0,441.5,400.0,434.5,401.0,430.5" stroke="black" stroke-width="2" fill="none" />
<polyline points="473.0,349.0,459.5,347.5,456.5,353.0,449.0,363.5,456.0,357.5,442.5,353.0,447.0,345.5,436.5,338.0,430.5,326.0,426.0,314.0,430.0,302.0,430.0,290.0,427.0,278.0,419.5,261.5,420.0,249.0,411.0,246.0,412.5,234.0,413.5,221.0,415.0,209.0,404.5,208.5,393.0,199.5" stroke="black" stroke-width="2" fill="none" />
<polyline points="396.0,198.5,397.5,192.0,403.5,180.0,414.0,186.0,422.5,195.0" stroke="black" stroke-width="2" fill="none" />
<polyline points="389.5,216.0,393.5,210.5,405.5,212.0,400.5,224.5,400.0,236.5,389.5,239.5,392.5,262.0,398.5,274.0,392.5,277.0,385.0,289.0,369.0,290.5,361.5,302.5,362.5,296.5,374.5,299.5,376.0,284.0,380.0,279.5,387.5,284.5,392.5,281.0,407.5,275.5,413.5,262.0,434.5,245.5,443.5,244.0,452.5,241.0" stroke="black" stroke-width="2" fill="none" />
<polyline points="377.5,164.0,366.0,148.5" stroke="black" stroke-width="2" fill="none" />
<polyline points="303.0,171.0,291.0,165.0,273.0,156.0" stroke="black" stroke-width="2" fill="none" />
<polyline points="258.0,157.5,261.5,169.5,263.0,190.0,261.5,202.0,255.5,214.5,251.0,226.5,245.0,238.5,255.5,237.0,260.0,249.0,254.0,260.5,249.5,266.5,234.0,275.5,237.0,288.0,236.0,301.5,245.0,318.5,249.5,311.0,264.5,316.0,266.0,307.0,287.0,304.5,295.0,306.0,305.5,301.0,309.5,291.0,321.0,274.0" stroke="black" stroke-width="2" fill="none" />
<polyline points="301.0,280.0,297.0,292.0,301.5,280.0,307.5,268.0,309.0,256.0,311.0,244.0,313.0,232.0,316.0,224.5,308.5,214.0,299.0,185.0,291.0,182.0,283.0,184.0,277.5,184.0,281.5,173.5,269.5,169.0,253.0,155.5,251.5,145.0,247.0,160.0,244.0,181.0,232.5,173.0,222.0,180.0,215.5,172.5,223.5,160.5,225.0,149.0,220.0,132.5,227.5,114.5,221.5,102.5,215.0,117.5" stroke="black" stroke-width="2" fill="none" />
<polyline points="253.0,126.5,257.5,116.0,259.0,137.0,248.5,147.5,244.0,150.5,242.5,159.5,241.0,140.0,256.0,133.0,263.0,124.5,270.5,137.5,282.5,158.5,296.5,172.0,308.5,193.5,319.0,192.0" stroke="black" stroke-width="2" fill="none" />
<polyline points="302.0,197.0,291.0,192.5,279.5,190.0,267.5,196.0" stroke="black" stroke-width="2" fill="none" />
<polyline points="279.0,203.0,291.0,209.5,303.5,217.0" stroke="black" stroke-width="2" fill="none" />
<polyline points="298.0,205.0,286.0,202.0" stroke="black" stroke-width="2" fill="none" />
<polyline points="302.0,177.0,306.5,178.5,310.0,190.5,307.5,193.5,316.5,207.5,308.0,216.0,306.5,228.0,306.5,240.0,299.0,242.5,301.0,245.5" stroke="black" stroke-width="2" fill="none" />
<polyline points="291.5,241.0,282.5,251.5,270.5,261.0" stroke="black" stroke-width="2" fill="none" />
<polyline points="272.0,266.0,279.5,269.0,279.5,280.5,269.0,292.5,272.0,295.5" stroke="black" stroke-width="2" fill="none" />
<polyline points="262.0,275.0,253.5,269.5,249.0,280.0,247.5,282.5" stroke="black" stroke-width="2" fill="none" />
<polyline points="234.0,292.0,228.5,287.5,229.0,278.5" stroke="black" stroke-width="2" fill="none" />
<polyline points="225.5,271.0,224.0,269.0,229.5,281.0,235.5,293.0,234.5,305.5" stroke="black" stroke-width="2" fill="none" />
<polyline points="238.5,325.0,226.0,304.5,214.0,275.0" stroke="black" stroke-width="2" fill="none" />
<polyline points="208.0,278.5,217.0,290.5,215.5,303.0,214.0,310.5,226.0,327.0" stroke="black" stroke-width="2" fill="none" />
<polyline points="254.5,339.0,251.0,327.0,249.5,314.5,249.5,302.0,243.5,290.0,240.5,278.0,237.5,266.0,242.0,257.0,239.0,250.0,236.0,244.0,236.0,235.5,240.0,227.5,244.5,212.5,243.0,205.0,241.5,195.0,245.5,183.0,250.5,171.0,253.5,159.5,263.0,155.0,261.5,142.0,264.5,130.0,251.5,122.5,260.5,112.0,262.0,102.5,260.5,90.5,257.0,83.0" stroke="black" stroke-width="2" fill="none" />
<polyline points="251.0,72.0,252.5,60.5,263.0,75.0,272.5,81.0,274.0,93.0,271.5,96.0" stroke="black" stroke-width="2" fill="none" />
<polyline points="270.0,139.0,270.0,151.0,268.5,163.0,270.5,169.0,272.5,180.5,269.5,193.5,269.5,205.5,272.5,217.5,275.5,229.5,271.0,241.5,272.5,253.5,268.0,265.5,266.5,277.5,245.5,280.5,249.0,292.5,244.0,305.0,256.0,297.5,271.0,302.0,290.5,293.5,296.5,279.0,298.0,270.0,298.0,262.5,302.0,253.5" stroke="black" stroke-width="2" fill="none" />
<polyline points="295.0,277.0,290.5,289.5,285.0,302.0,280.5,314.0,279.0,326.5,273.5,338.5,277.0,331.0,289.5,316.0,293.0,311.5" stroke="black" stroke-width="2" fill="none" />
<polyline points="296.0,334.0,284.0,350.5" stroke="black" stroke-width="2" fill="none" />
<polyline points="280.0,368.0,275.5,379.5,279.5,391.0,285.5,392.5" stroke="black" stroke-width="2" fill="none" />
<polyline points="276.0,376.0,288.0,373.0" stroke="black" stroke-width="2" fill="none" />
<polyline points="291.0,394.5,285.0,376.5,278.0,364.5,279.5,349.5,259.0,358.5,247.0,348.0,235.0,337.5,231.5,322.5,219.5,306.0,210.5,300.0,204.0,288.5,207.0,284.5,214.5,280.0,211.5,268.5,206.5,271.5,210.0,259.5,220.0,255.0,220.0,243.0,229.5,236.0,228.0,223.5,238.5,217.5,231.0,215.0,225.0,209.0,232.5,197.0,234.0,192.0,240.0,180.0,241.5,171.5,249.0,159.5,252.0,147.5,267.0,137.0,273.0,126.5,271.5,114.5,268.5,109.5,266.5,97.5,266.5,85.0,267.5,72.5,262.0,62.0,263.5,56.0,250.0,53.0,264.0,50.5,260.0,38.5,258.5,28.0,251.0,23.0,253.0,14.0,233.0,8.0,230.0,3.5" stroke="black" stroke-width="2" fill="none" />
<polyline points="241.0,15.5,245.5,8.0,239.5,9.5,245.5,22.0,251.5,37.0,251.0,44.5" stroke="black" stroke-width="2" fill="none" />
<polyline points="271.5,30.5,284.0,27.5,281.5,44.0,276.0,56.0,278.0,68.5,280.0,79.0,280.0,91.5,284.5,104.0,280.5,113.0,277.0,125.0,274.0,137.5,280.5,149.0,278.5,160.5,286.0,171.5,275.0,171.5,280.5,180.0,276.0,189.0,283.0,191.5,282.0,203.5,279.0,211.5,281.5,217.5,280.5,229.5,276.0,241.0,277.5,253.0,280.5,264.0,261.5,267.0,272.0,273.5,275.5,275.0,267.0,283.0,267.5,295.0,264.5,307.0,261.5,309.5,266.0,315.5,254.0,321.5,246.5,332.0,252.0,344.0,255.0,356.0,268.5,361.0,268.5,373.0,268.5,385.0,270.0,397.0,270.0,394.0,274.0,390.5,278.5,406.5,284.5,403.0,290.5,411.5" stroke="black" stroke-width="2" fill="none" />
<polyline points="265.0,394.5,262.0,382.5,258.5,370.5,266.0,349.5,268.0,337.5,269.5,325.5,274.0,315.0,279.0,302.5,283.5,290.5,286.5,278.5,288.0,266.0,289.5,253.5,288.0,241.5,276.0,227.5,273.5,241.0" stroke="black" stroke-width="2" fill="none" />
<polyline points="256.5,236.0,249.0,237.5,237.0,239.0" stroke="black" stroke-width="2" fill="none" />
<polyline points="226.0,240.0,226.0,236.0,233.0,243.0,234.5,255.0,233.0,264.0,231.0,276.0,228.5,291.0,228.5,309.0,227.0,321.0,228.0,318.5,237.0,332.5,243.5,348.5" stroke="black" stroke-width="2" fill="none" />
<polyline points="240.0,372.0,251.5,372.0,253.0,378.0,253.0,390.0,241.0,401.5,256.0,395.5" stroke="black" stroke-width="2" fill="none" />
<polyline points="255.5,412.5,272.5,414.0,269.5,426.0,284.0,412.5,283.5,426.5" stroke="black" stroke-width="2" fill="none" />
<polyline points="270.0,432.5,258.0,446.0,259.5,443.0,259.5,431.0,258.0,419.0" stroke="black" stroke-width="2" fill="none" />
<polyline points="260.0,399.0,248.0,409.5,250.0,384.0,237.5,388.5,243.5,393.5,245.0,377.5,249.5,358.0,237.0,371.5" stroke="black" stroke-width="2" fill="none" />
<polyline points="226.0,419.5,223.0,443.5,210.5,451.0,210.5,457.5,199.0,460.5,194.5,468.5,193.5,473.0,195.0,469.0,205.5,463.0,213.0,449.5,229.5,442.0,231.0,428.5,226.5,409.0,219.0,397.0,219.0,385.0,220.0,373.5,218.0,360.0,221.5,355.5,220.0,341.5,217.0,333.0,205.0,313.5,193.5,303.0" stroke="black" stroke-width="2" fill="none" />
<polyline points="200.5,295.0,212.5,307.0" stroke="black" stroke-width="2" fill="none" />
<polyline points="217.5,290.0,205.5,285.5" stroke="black" stroke-width="2" fill="none" />
<polyline points="219.5,288.0,224.0,300.5" stroke="black" stroke-width="2" fill="none" />
<polyline points="257.0,322.5,261.0,334.5" stroke="black" stroke-width="2" fill="none" />
<polyline points="269.0,325.5,287.0,304.5,283.5,316.0,283.5,334.0,282.5,337.0,289.5,332.5" stroke="black" stroke-width="2" fill="none" />
<polyline points="304.5,349.0,306.0,361.0,306.5,373.0,312.5,385.0,311.0,397.0,303.5,409.5,300.5,421.5,297.5,433.5,293.0,445.0,296.0,457.5,301.5,459.0,303.5,465.0,310.0,456.0,317.5,462.0,331.0,458.0" stroke="black" stroke-width="2" fill="none" />
<polyline points="381.0,440.0,367.5,441.5,367.5,434.0,361.5,431.5,360.5,440.0,348.5,438.5,337.0,445.5,324.5,454.5,312.5,452.0,302.0,452.0,308.0,463.5,305.0,451.5,298.0,445.5,308.5,435.0,305.5,420.0,312.0,406.0,316.5,391.0,315.0,379.0,313.5,367.5,312.0,354.0,314.0,342.0,319.5,330.0,327.0,318.5,337.5,307.0,338.0,307.5,326.0,321.0,314.5,344.0" stroke="black" stroke-width="2" fill="none" />
<polyline points="254.0,262.0,233.0,265.5,227.0,259.5,211.0,256.5,206.5,261.0,205.0,249.0,208.0,241.5,202.0,235.5,211.0,225.0,212.5,213.0,215.5,204.5,219.5,190.5,225.5,178.0,227.0,166.0,229.5,153.5,228.0,141.5,231.0,129.5,235.0,125.0,238.0,113.0,241.0,101.5,239.5,89.0,244.5,77.0,238.5,83.0,233.0,70.5,230.5,58.5,223.0,48.0" stroke="black" stroke-width="2" fill="none" />
<polyline points="208.5,59.5,209.0,59.5,209.5,71.5,210.0,83.5,211.5,104.0,218.0,107.0,230.5,120.0,233.5,129.0" stroke="black" stroke-width="2" fill="none" />
<polyline points="256.0,162.0,255.5,174.0,256.0,186.5,252.0,198.0,253.5,202.0,252.5,209.5,246.5,221.5,242.5,233.5,256.0,247.5,247.0,252.5,248.5,248.0,248.5,241.5,254.0,244.0" stroke="black" stroke-width="2" fill="none" />
<polyline points="256.0,213.5,244.0,225.5,232.0,231.5,230.5,234.5,227.5,223.5" stroke="black" stroke-width="2" fill="none" />
<polyline points="230.5,212.0,242.5,208.0,242.5,201.5" stroke="black" stroke-width="2" fill="none" />
<polyline points="233.0,195.0,238.5,189.0" stroke="black" stroke-width="2" fill="none" />
<polyline points="233.0,183.5,221.5,205.5" stroke="black" stroke-width="2" fill="none" />
<polyline points="200.5,202.5,212.5,184.0,214.0,170.5,228.0,164.5,234.5,164.5,250.0,172.5" stroke="black" stroke-width="2" fill="none" />
<polyline points="203.5,244.0,204.5,229.0,192.5,238.0" stroke="black" stroke-width="2" fill="none" />
<polyline points="176.5,274.5,164.0,269.0" stroke="black" stroke-width="2" fill="none" />
<polyline points="162.0,270.5,174.5,284.5,183.5,289.0,185.0,301.5,188.0,314.0,200.5,312.5,209.5,320.0,215.5,332.0,215.5,343.5,218.5,356.0,214.0,368.0,212.5,379.5,213.0,391.0,219.0,403.0,223.0,416.5,227.5,428.0,222.5,440.0,231.5,444.0,230.0,456.0,219.0,468.5,204.0,472.5,216.0,468.5,226.5,462.5" stroke="black" stroke-width="2" fill="none" />
<polyline points="206.0,471.0,221.0,458.5,217.5,452.5,225.0,451.0,222.0,457.0,210.5,463.0,198.5,448.0,200.0,436.0,195.5,424.5,188.0,416.0,176.0,411.5" stroke="black" stroke-width="2" fill="none" />
<polyline points="170.0,411.5,158.5,413.0,164.5,396.0,162.0,384.0,159.0,372.0,156.0,360.0,154.5,348.0,157.5,336.0,156.5,324.0,160.0,315.0,158.0,303.0,144.0,301.5,127.5,314.5,126.0,302.5,120.5,293.5,105.5,295.0,94.0,310.0,101.5,301.0,112.0,287.5,105.0,286.0" stroke="black" stroke-width="2" fill="none" />
<polyline points="99.5,289.0,89.0,292.5,84.5,294.0,87.5,306.5,87.5,305.0" stroke="black" stroke-width="2" fill="none" />
<polyline points="94.0,295.5,106.0,276.0,117.5,272.5,126.5,277.0,116.5,288.0,120.5,295.5,129.5,290.5,116.5,302.0,119.5,313.5,128.5,330.0,141.5,324.0,152.0,322.0" stroke="black" stroke-width="2" fill="none" />
<polyline points="152.0,305.5,155.0,317.5,151.5,329.5,163.5,331.0,162.0,343.0,164.5,356.5,167.0,370.0" stroke="black" stroke-width="2" fill="none" />
<polyline points="171.5,350.0,182.0,348.5" stroke="black" stroke-width="2" fill="none" />
<polyline points="187.5,375.5,195.0,387.0,205.5,399.5" stroke="black" stroke-width="2" fill="none" />
<polyline points="222.0,414.5,218.0,396.5,209.0,398.5,203.0,386.5,199.0,367.0,187.0,364.0,182.5,357.5,194.5,354.5,192.5,341.0,188.0,333.5,191.0,326.0,182.0,317.0,178.5,304.5,165.0,291.0,159.0,285.5,153.5,273.5,168.5,260.5,173.0,248.5,174.5,236.5,174.0,224.5,163.5,223.0,162.0,211.0,161.0,199.0,156.5,187.0,150.5,182.5,155.0,170.0,156.5,158.0,164.0,146.0,154.5,160.0" stroke="black" stroke-width="2" fill="none" />
<polyline points="160.0,156.0,164.5,151.5,159.0,163.5,157.5,175.0,160.5,187.0,164.5,198.5,168.0,207.5,166.5,218.5,165.0,230.0,169.5,231.5,170.0,243.5" stroke="black" stroke-width="2" fill="none" />
<polyline points="172.5,254.0,160.0,267.5" stroke="black" stroke-width="2" fill="none" />
<polyline points="152.0,273.0,157.0,268.5,169.5,283.5,175.5,296.0,172.0,308.5,178.5,320.5,173.5,324.0,170.5,322.0,173.5,331.0,188.5,335.5" stroke="black" stroke-width="2" fill="none" />
<polyline points="173.0,307.0,164.0,309.0,159.5,296.0,153.5,299.0,147.5,287.5,143.0,276.0,119.0,270.5,114.5,260.0,117.5,256.5,116.0,244.0,110.0,236.0,108.0,227.0,103.0,219.5,115.5,211.5,111.5,199.5,128.0,193.5,125.0,182.0,119.0,179.0" stroke="black" stroke-width="2" fill="none" />
<polyline points="126.5,175.5,138.0,186.0,132.0,204.0,130.0,216.0,129.5,222.0,146.5,227.0,158.0,249.5" stroke="black" stroke-width="2" fill="none" />
<polyline points="137.5,274.0,125.5,274.0" stroke="black" stroke-width="2" fill="none" />
<polyline points="118.5,278.0,135.0,281.0,135.5,292.5,132.0,304.5,123.0,306.5,123.0,318.5,128.0,332.5,130.0,341.5,130.5,354.0,131.5,366.0,130.0,378.0,126.5,390.0,131.0,391.5,129.5,403.5,133.5,404.5,130.0,416.0,132.5,428.5,133.5,420.0" stroke="black" stroke-width="2" fill="none" />
<polyline points="133.5,405.0,145.5,405.0,156.0,399.0" stroke="black" stroke-width="2" fill="none" />
<polyline points="160.0,420.0,172.0,419.0,179.5,422.0,192.0,425.0,197.0,437.0,194.0,449.0,182.0,456.0" stroke="black" stroke-width="2" fill="none" />
<polyline points="176.0,467.0,163.5,467.0" stroke="black" stroke-width="2" fill="none" />
<polyline points="161.5,463.5,173.0,463.5,184.5,456.0" stroke="black" stroke-width="2" fill="none" />
<polyline points="171.5,449.5,159.5,443.5" stroke="black" stroke-width="2" fill="none" />
<polyline points="158.5,441.5,171.0,439.5,183.0,444.0,182.5,451.5,178.0,457.5" stroke="black" stroke-width="2" fill="none" />
<polyline points="172.5,453.5,162.0,442.0" stroke="black" stroke-width="2" fill="none" />
<polyline points="143.0,464.0,118.5,452.0,114.0,452.5" stroke="black" stroke-width="2" fill="none" />
<polyline points="134.5,481.5,146.5,484.5,154.0,495.0,160.0,510.5,172.0,512.0,183.5,509.0" stroke="black" stroke-width="2" fill="none" />
<polyline points="191.5,499.0,180.0,511.0,178.5,520.0,190.5,515.5,196.0,500.0,208.5,503.0" stroke="black" stroke-width="2" fill="none" />
<polyline points="203.0,502.5,202.0,514.5,196.0,524.5,208.0,524.5,228.5,518.5,240.5,522.5,253.0,536.0,274.0,530.0,280.0,525.0" stroke="black" stroke-width="2" fill="none" />
<polyline points="212.5,507.5,211.0,495.5,205.0,491.0,193.0,488.0" stroke="black" stroke-width="2" fill="none" />
<polyline points="193.0,484.0,180.5,496.0,172.5,505.0,180.0,506.5,191.5,494.5,197.0,496.5,209.0,501.0" stroke="black" stroke-width="2" fill="none" />
<polyline points="205.0,497.5,208.0,509.5,200.5,522.0,186.0,529.5,183.0,541.5,177.5,553.5,176.0,565.0,184.5,577.0,184.5,584.0,179.5,585.5,184.0,596.0,191.5,602.0,184.5,612.5,180.0,625.0,167.0,628.0,163.5,640.5,171.0,636.0,172.5,648.0,169.5,660.0,168.0,672.0,172.5,684.0,193.5,694.5,208.5,691.5,216.0,694.5" stroke="black" stroke-width="2" fill="none" />
<polyline points="223.0,674.0,212.5,665.0,200.5,668.5" stroke="black" stroke-width="2" fill="none" />
<polyline points="201.0,686.0,211.5,674.5,214.5,665.5,223.0,657.5,227.5,645.5,226.5,633.0,224.0,621.0,234.5,616.0,222.0,614.5,209.5,627.0,197.5,630.0" stroke="black" stroke-width="2" fill="none" />
<polyline points="188.5,645.5,186.0,653.5,182.0,637.5,176.0,637.5,173.0,633.0,172.0,634.5" stroke="black" stroke-width="2" fill="none" />
<polyline points="179.0,659.5,176.0,671.5,180.0,684.0,180.0,699.0" stroke="black" stroke-width="2" fill="none" />
<polyline points="202.0,658.5,189.5,656.5,173.0,649.0,159.5,644.0,147.5,650.0,135.5,654.5,134.5,657.5" stroke="black" stroke-width="2" fill="none" />
<polyline points="128.5,666.0,142.5,678.0,148.5,690.0,154.5,699.0,165.0,711.0,169.0,711.0,187.0,716.0,198.5,720.5,210.0,719.0" stroke="black" stroke-width="2" fill="none" />
<polyline points="231.0,707.5,236.5,693.5,231.5,681.5,216.0,678.0,204.5,681.0,192.5,691.5,180.5,684.0,167.0,679.5,155.0,672.5,143.0,671.0,137.5,665.0,131.5,653.0,123.0,654.5,118.5,662.0,104.0,666.5,99.5,666.5,96.5,672.5,87.0,683.0,84.5,696.0,74.0,705.0,62.5,711.0,50.0,717.0,38.0,717.5,26.0,715.0,27.5,707.5,13.5,703.0,10.5,694.0,28.5,693.0,35.5,687.0,47.0,685.0,49.0,673.0,56.5,656.5,63.0,644.0,48.0,636.5,57.0,630.0,63.0,618.5,75.0,617.0,84.0,605.0,86.0,602.5,91.0,590.5,84.0,581.5,84.0,576.0,85.5,564.0,88.5,559.5,73.5,556.5,76.5,541.5,76.5,529.5,93.0,522.0,103.5,510.0,112.5,490.5,119.0,481.0,106.5,497.0,88.5,498.5,100.5,496.5,96.0,484.5,85.5,487.5" stroke="black" stroke-width="2" fill="none" />
<polyline points="83.5,488.5,91.0,482.5,84.5,494.5,90.5,506.0" stroke="black" stroke-width="2" fill="none" />
<polyline points="95.5,496.0,83.5,493.0" stroke="black" stroke-width="2" fill="none" />
<polyline points="90.0,482.5,102.0,490.0" stroke="black" stroke-width="2" fill="none" />
<polyline points="120.0,512.0,135.0,513.5,120.0,518.0,112.5,519.5,94.5,530.5,92.0,542.5,92.0,554.5,89.5,566.5,95.5,571.0,94.0,583.0,76.0,582.0,88.0,584.5,88.0,592.0,100.5,593.5,109.5,602.5,112.5,602.0,119.5,607.0,126.5,594.5,137.0,594.5,141.5,581.0" stroke="black" stroke-width="2" fill="none" />
<polyline points="142.5,589.5,150.0,600.0,139.5,614.0,147.0,617.0" stroke="black" stroke-width="2" fill="none" />
<polyline points="151.5,596.5,158.5,608.5,151.5,620.5,152.0,632.5,157.0,644.0,160.5,656.0,166.5,656.0,180.0,660.0,180.0,663.0,192.5,670.5,201.5,654.0" stroke="black" stroke-width="2" fill="none" />
<polyline points="146.0,659.5,140.0,638.5,128.0,634.0,116.0,638.0,102.5,644.5,90.5,640.0,84.5,637.0,73.5,638.5,61.5,634.0" stroke="black" stroke-width="2" fill="none" />
<polyline points="62.0,657.0,74.0,655.5,66.5,664.5,53.5,670.5,44.5,679.5,32.5,683.0,34.0,693.5,32.5,692.0,40.5,698.0,52.0,677.0" stroke="black" stroke-width="2" fill="none" />
<polyline points="41.5,683.0,34.0,692.5,50.5,689.5,55.0,690.0,55.0,678.5,40.5,676.0,34.5,682.0" stroke="black" stroke-width="2" fill="none" />
<polyline points="25.5,675.5,37.5,671.0,27.0,684.5,21.0,700.5,12.0,718.5" stroke="black" stroke-width="2" fill="none" />
<polyline points="41.5,707.5,42.0,712.0,30.5,708.0,27.5,697.5,23.0,682.5,19.5,673.5,34.5,667.0,40.5,653.0,45.0,645.5,49.5,630.5,51.0,618.5,49.5,606.5,40.5,601.0,48.0,591.0,42.0,579.5,43.5,566.0,52.0,554.0,53.5,542.0,40.0,540.0,28.0,537.0,23.5,532.5,11.5,540.0,4.0,548.0,7.0,540.0,18.5,528.0,14.5,516.0,8.0,504.0,8.0,491.5,24.0,487.0,12.0,487.0" stroke="black" stroke-width="2" fill="none" />
<polyline points="12.0,496.0,24.5,491.0,12.5,498.5,17.0,510.5,28.0,522.0,20.5,532.5,17.5,543.0,25.0,544.5,37.0,549.0" stroke="black" stroke-width="2" fill="none" />
<polyline points="38.0,543.5,39.5,545.0,24.0,556.5,31.5,561.0,26.0,573.0,26.0,577.0,32.0,589.0,39.0,590.5,34.0,602.0,13.0,606.5,8.5,615.5,10.0,627.5,16.0,641.0,20.5,653.5,25.5,661.0,25.0,658.0,39.0,664.5,50.5,664.5,58.0,666.0,67.0,666.0,82.5,659.0,83.5,670.5,79.0,682.0,56.0,694.0,66.5,689.5" stroke="black" stroke-width="2" fill="none" />
<polyline points="69.5,698.0,57.0,696.5" stroke="black" stroke-width="2" fill="none" />
<polyline points="58.5,643.5,49.5,643.5,36.0,648.5,34.5,636.5,28.5,633.5,25.0,632.0,26.0,622.5,14.0,625.0" stroke="black" stroke-width="2" fill="none" />
<polyline points="12.5,617.5,24.5,610.0,37.0,611.5,40.0,631.5,25.0,643.0,26.5,655.5" stroke="black" stroke-width="2" fill="none" />
<polyline points="18.5,631.5,31.0,633.0,41.0,620.5,47.0,637.0,59.0,630.0,71.0,618.0,83.0,625.5,91.5,622.5" stroke="black" stroke-width="2" fill="none" />
<polyline points="100.5,611.5,88.5,624.0,105.0,625.5,97.5,637.5,118.0,645.0,124.0,656.5,134.5,665.5,152.5,665.5" stroke="black" stroke-width="2" fill="none" />
<polyline points="121.5,641.0,113.5,655.0,125.5,652.5,127.0,640.5,128.0,630.5,131.5,612.5,130.0,603.0,124.0,586.0,112.0,586.0,111.0,570.5,115.5,561.5,123.5,563.0,125.5,552.5,127.0,543.5,113.5,550.5" stroke="black" stroke-width="2" fill="none" />
<polyline points="123.0,542.5,114.0,554.5,110.0,554.5,101.0,576.0,105.5,587.0,106.5,589.5,114.0,597.0,117.5,592.0" stroke="black" stroke-width="2" fill="none" />
<polyline points="123.5,595.0,118.5,607.0,111.5,620.5,129.5,613.0,134.0,602.0,140.0,602.0,146.0,609.5,157.5,611.0,168.0,605.0,176.5,596.0,177.0,586.5" stroke="black" stroke-width="2" fill="none" />
<polyline points="160.5,577.5,177.0,573.5,189.5,578.0,201.5,575.5,207.5,586.0" stroke="black" stroke-width="2" fill="none" />
<polyline points="228.5,583.0,227.0,572.5,219.5,566.0,212.5,566.0,200.0,564.5,191.0,558.5,193.0,562.0,181.5,550.0,198.0,550.0,196.0,538.0,188.5,528.5,172.0,531.5,170.0,519.5,155.0,507.5,147.5,495.5,140.0,485.0,134.0,485.5,136.0,466.0,115.0,454.0,96.5,446.5,107.0,440.5,110.0,428.5,114.5,416.5,118.0,404.5,118.0,393.0,118.5,381.5,113.5,369.0,103.0,354.0,91.0,339.0,87.0,316.5,85.0,322.0,79.5,304.0,74.5,292.0,82.0,288.5,85.0,284.0,80.5,284.0" stroke="black" stroke-width="2" fill="none" />
<polyline points="70.5,294.5,73.5,306.5,78.0,318.5,86.0,330.5,99.5,344.5" stroke="black" stroke-width="2" fill="none" />
<polyline points="93.0,336.0,79.5,330.0,70.5,310.5,49.5,318.0,36.0,343.5,24.0,348.0,19.5,361.5,15.5,369.0,11.0,383.5,4.5,398.5,10.5,386.5,16.5,374.5,14.0,365.5,17.0,353.5,26.0,349.0,24.5,340.5,29.0,329.0,21.5,314.0,26.0,302.0,37.0,297.0,44.5,285.0,41.0,278.5,47.5,267.5,57.5,253.5,50.0,246.0,59.0,233.5,70.0,221.5,70.0,209.5,84.5,194.5,76.0,184.0,88.0,175.5,94.0,164.5,82.0,150.0,76.5,146.0,83.0,134.5,84.5,121.0,86.0,109.5,84.5,111.0" stroke="black" stroke-width="2" fill="none" />
<polyline points="81.0,107.5,93.5,92.5,105.5,83.5,117.5,88.0,129.0,100.0" stroke="black" stroke-width="2" fill="none" />
<polyline points="118.5,92.5,121.5,104.0,110.0,98.0" stroke="black" stroke-width="2" fill="none" />
<polyline points="103.0,94.5,118.0,104.0,106.0,116.0,106.0,130.0,89.5,137.0,85.0,155.5,86.5,167.5,73.0,179.5,65.5,191.5,70.0,203.5,80.5,207.0,76.0,219.0,70.5,223.5" stroke="black" stroke-width="2" fill="none" />
<polyline points="66.5,199.5,78.5,204.0,89.0,206.5" stroke="black" stroke-width="2" fill="none" />
<polyline points="102.0,191.0,81.0,179.0,69.0,192.5" stroke="black" stroke-width="2" fill="none" />
<polyline points="51.0,200.5,71.0,187.0,83.0,175.0,93.0,167.5,103.5,182.5,111.0,175.0,110.5,170.5,122.5,164.5,134.5,159.0" stroke="black" stroke-width="2" fill="none" />
<polyline points="134.5,178.5,122.5,172.5,110.5,178.5" stroke="black" stroke-width="2" fill="none" />
<polyline points="114.0,187.0,106.5,190.0,96.0,205.5,99.0,217.5,98.0,234.0,96.5,246.0,86.0,244.5,81.5,256.5,68.5,261.0,93.0,271.0,75.0,280.0,72.0,292.5,67.0,298.5,58.0,310.5,56.5,322.5,53.5,334.5,54.5,348.0,50.0,360.0,47.0,372.0,43.5,384.0,40.5,396.0,42.0,402.0,31.5,409.0,39.0,414.5,46.5,406.5,58.5,397.5,66.0,404.5,69.5,398.5,77.5,394.0,77.5,398.5,69.5,398.5,59.5,403.0,64.0,415.0,61.0,407.5,76.0,398.0" stroke="black" stroke-width="2" fill="none" />
<polyline points="88.0,408.0,91.0,419.5,96.0,431.5,86.0,443.5,78.5,458.0,73.5,456.5,85.5,449.0,97.5,439.0,108.0,446.5,120.0,449.5,120.5,457.0,129.5,458.5,129.0,463.0,141.0,467.5" stroke="black" stroke-width="2" fill="none" />
<polyline points="155.5,488.5,167.5,484.0,171.0,496.0,159.0,497.5,162.5,508.5,170.0,499.5" stroke="black" stroke-width="2" fill="none" />
<polyline points="165.0,509.0,153.0,498.0" stroke="black" stroke-width="2" fill="none" />
<polyline points="139.5,506.0,157.5,518.0,163.5,530.0,165.0,541.5,163.5,553.5,160.5,565.0,153.5,576.5,152.0,588.5,148.0,594.5,134.5,606.0,148.0,603.0,144.0,612.0,136.5,631.5,145.5,643.5,147.0,651.0,142.0,663.0,148.0,675.5,153.5,684.5,157.5,692.0,165.0,701.0,171.0,701.0,169.5,713.0,180.0,717.5,192.0,713.0,204.5,713.0,204.5,716.5,217.0,719.5,220.0,713.5,232.5,714.0" stroke="black" stroke-width="2" fill="none" />
<polyline points="217.0,712.5,226.0,709.5,227.5,696.5,221.5,693.5,211.0,689.0,203.0,688.5,216.5,686.5,222.0,674.5,230.0,667.0,229.5,659.5,232.5,647.5,236.0,636.0,239.0,624.0,251.0,619.0,237.5,608.5,225.5,605.0,208.5,603.5,207.0,613.5,203.0,621.0,212.5,600.0,214.0,588.0,226.0,582.0,230.5,580.0,215.5,576.0,208.0,595.5,199.0,600.5,199.0,608.0,187.0,613.0,172.5,619.5,169.5,610.5,168.0,624.5,162.0,630.5,155.5,633.5,154.0,624.0,176.5,613.5,164.5,606.0,166.0,594.0,161.5,580.5,165.5,580.5,165.5,568.0,166.5,560.5,168.0,545.0,172.0,528.5,160.5,519.5,148.5,507.5,136.5,502.5,124.0,502.5,112.0,503.5,100.0,509.5,88.5,524.5,76.5,517.0,65.0,514.0,53.0,502.0" stroke="black" stroke-width="2" fill="none" />
<polyline points="52.5,501.5,64.5,503.0" stroke="black" stroke-width="2" fill="none" />
<polyline points="69.0,506.5,66.0,497.5,54.0,493.0,41.5,503.5" stroke="black" stroke-width="2" fill="none" />
<polyline points="38.0,512.5,50.0,524.5,62.0,533.5,71.0,524.5" stroke="black" stroke-width="2" fill="none" />
<polyline points="81.0,526.0,71.0,538.5,86.5,538.5,86.5,526.5" stroke="black" stroke-width="2" fill="none" />
<polyline points="101.5,526.0,113.5,527.5,124.0,523.0,135.5,518.5" stroke="black" stroke-width="2" fill="none" />
<polyline points="132.5,518.0,141.5,521.0,150.5,533.0" stroke="black" stroke-width="2" fill="none" />
<polyline points="165.5,540.5,177.5,543.0,181.5,537.0,192.0,536.5,198.5,527.0,206.0,528.0,218.0,529.5,230.5,540.0,242.5,540.0,254.5,544.5,266.5,547.5" stroke="black" stroke-width="2" fill="none" />
<polyline points="240.0,603.0,250.0,615.0,253.0,631.0,247.0,643.0,236.5,654.5,238.0,666.0,255.0,658.5,253.5,670.5" stroke="black" stroke-width="2" fill="none" />
<polyline points="252.5,659.0,246.5,648.5,244.5,629.0,246.0,617.0,230.5,605.0" stroke="black" stroke-width="2" fill="none" />
<polyline points="230.5,550.0,221.5,542.0,210.0,535.5,201.0,558.0,183.5,546.0,190.0,547.5,191.5,535.5" stroke="black" stroke-width="2" fill="none" />
<polyline points="192.5,521.5,185.0,529.0,196.5,513.0,201.0,501.0" stroke="black" stroke-width="2" fill="none" />
<polyline points="214.0,491.5,221.5,503.0,214.0,515.0,217.0,533.5,224.5,546.0,234.5,549.0,235.0,561.0,238.0,573.0,234.0,585.0,225.0,596.5,225.0,601.0,202.5,613.5,199.5,625.5,202.5,645.0,194.5,657.0,196.0,676.0,194.5,688.0,203.5,698.5,216.0,698.5,228.0,690.5,235.0,686.0,241.0,675.5,250.0,674.0" stroke="black" stroke-width="2" fill="none" />
<polyline points="120.5,623.5,125.0,635.5,111.5,648.0,101.0,661.5,93.5,676.5,87.5,690.0" stroke="black" stroke-width="2" fill="none" />
<polyline points="72.0,703.0,60.0,706.0,47.5,704.5,48.0,701.5,36.0,703.0,22.5,702.5,19.0,693.5,14.0,688.5,11.0,679.5,12.5,672.0,6.0,658.5,6.0,650.0,4.0,645.0,4.0,633.0,2.5,612.0,10.0,600.0,22.0,595.5,16.0,584.0,16.0,572.5,6.5,560.0,8.0,548.5,23.0,537.0,25.0,543.0,13.0,542.5,1.0,553.0" stroke="black" stroke-width="2" fill="none" />
<polyline points="26.0,542.5,18.5,542.5,18.0,554.5,12.0,562.0,24.0,554.0,36.0,555.5,39.0,562.5,51.5,552.0" stroke="black" stroke-width="2" fill="none" />
<polyline points="43.0,569.0,55.5,575.5,68.0,575.5,80.0,571.0,91.0,574.0,103.0,563.5" stroke="black" stroke-width="2" fill="none" />
<polyline points="100.0,575.0,112.5,578.0" stroke="black" stroke-width="2" fill="none" />
<polyline points="134.0,568.0,122.0,562.0,118.5,572.5,114.0,579.5,125.0,573.5,120.5,567.5,134.0,557.0,137.0,539.5,130.5,537.5,132.0,542.0" stroke="black" stroke-width="2" fill="none" />
<polyline points="133.0,527.5,125.0,526.5,117.0,538.0,105.0,543.5,97.0,557.0,95.5,576.5,98.5,588.0,98.5,600.0,94.5,612.0,78.0,621.0,77.0,627.5,76.5,639.5,72.0,648.5,79.5,663.5,75.0,663.5,75.0,676.0,76.5,683.5,84.0,680.5,91.5,667.5,109.5,670.5,115.5,663.0,108.0,672.0,102.5,680.5,90.0,690.5,76.5,707.0,87.0,702.5" stroke="black" stroke-width="2" fill="none" />
<polyline points="95.0,702.5,104.0,691.0,109.0,679.0" stroke="black" stroke-width="2" fill="none" />
<polyline points="44.0,605.5,42.0,608.5,45.0,593.5,42.0,587.5,32.5,576.0,38.0,569.0,36.5,567.5" stroke="black" stroke-width="2" fill="none" />
<polyline points="36.0,582.0,48.0,580.5,54.0,585.0,60.0,595.0,63.0,586.0,67.0,587.5,79.0,590.5,82.5,601.5,94.5,601.5" stroke="black" stroke-width="2" fill="none" />
<polyline points="75.5,539.5,62.0,528.5,47.0,528.5,34.5,523.5,21.0,514.5,9.0,505.5" stroke="black" stroke-width="2" fill="none" />
<polyline points="14.5,514.5,32.0,526.5,44.0,534.0,56.0,534.0,68.0,541.0,80.0,541.0,83.0,549.5,98.0,557.0,108.5,555.5,112.5,555.5,124.5,552.5,132.5,551.0,147.5,549.5" stroke="black" stroke-width="2" fill="none" />
<polyline points="149.0,528.5,137.0,513.5,137.0,507.5,125.0,507.5,113.5,507.5,112.0,515.0,100.0,519.5" stroke="black" stroke-width="2" fill="none" />
<polyline points="104.0,528.5,99.5,540.5,110.0,539.0,119.0,537.5" stroke="black" stroke-width="2" fill="none" />
<polyline points="141.0,511.5,151.0,523.5,154.0,534.0,150.5,546.0,146.0,549.0,138.5,561.0,141.5,561.0,132.0,574.5,138.5,588.0,126.5,591.0,122.0,591.0,116.0,600.0,105.0,602.5,106.0,614.5,109.5,618.5,114.0,625.5,108.5,638.0,97.0,645.5,89.5,655.0,93.0,667.0,89.5,673.0,84.0,688.0,73.5,701.5,66.0,713.5,73.5,715.0,85.5,710.5,97.5,701.5,97.5,686.5,109.5,677.0,120.0,668.0,132.0,667.5,144.0,678.0,160.5,679.5,159.0,692.0,162.0,689.0,170.0,707.5,178.5,699.0,190.5,703.5,202.5,706.5,214.5,706.5,226.5,699.0" stroke="black" stroke-width="2" fill="none" />
<polyline points="94.0,651.5,91.0,660.5,79.0,656.0,67.0,652.5,55.5,658.5,43.5,660.0,36.0,658.5,28.5,646.5,9.0,637.5,16.5,625.5,21.0,612.5,20.0,608.5,8.0,617.5" stroke="black" stroke-width="2" fill="none" />
<polyline points="5.0,606.5,16.5,599.0,28.5,600.5,40.5,602.0,52.5,609.5,64.5,607.0,73.5,608.5,67.5,599.5,82.5,612.0,94.5,607.5,112.5,610.5,123.0,616.5" stroke="black" stroke-width="2" fill="none" />
<polyline points="81.0,503.0,73.0,501.0,62.5,488.5,62.5,488.5" stroke="black" stroke-width="2" fill="none" />
<polyline points="56.0,497.0,50.0,509.0,54.5,518.5,68.0,530.5,66.0,536.0,76.5,550.0,79.0,561.5,70.5,573.5,59.5,585.0,63.5,589.5,66.5,596.5,54.5,604.0,59.0,613.5,59.0,613.5,71.0,612.0,78.5,618.0,82.0,621.0,88.0,615.0,100.0,612.0,103.0,624.5,100.5,634.0,115.5,625.0,127.0,626.0,139.0,633.0,149.5,646.0,157.0,664.0,163.0,672.5,174.5,653.0,185.0,643.5,192.5,634.5,201.5,634.5,205.5,640.0,212.0,644.5,217.0,648.0,233.5,646.5,246.0,636.0" stroke="black" stroke-width="2" fill="none" />
<polyline points="146.5,537.0,143.5,534.0,130.0,526.0,127.0,538.0,115.0,542.5,108.0,546.0,99.0,547.0,83.5,563.5,70.0,553.0,53.5,562.0,42.0,565.0,60.0,558.0,60.5,546.0,56.0,534.0,60.5,529.5,48.0,517.5,37.5,507.0,40.0,505.0,50.5,493.0" stroke="black" stroke-width="2" fill="none" />
<polyline points="37.5,491.0,49.5,486.5,52.5,485.0,36.0,488.0,33.5,500.0,36.5,512.5,47.5,524.5,44.5,529.0,49.5,541.5" stroke="black" stroke-width="2" fill="none" />
<polyline points="34.0,493.0,46.0,484.0,58.0,485.5,70.0,488.5,81.5,504.5,93.5,505.0" stroke="black" stroke-width="2" fill="none" />
<polyline points="132.5,458.5,129.5,448.0,117.5,439.0,102.5,430.0,99.5,443.5,87.0,452.5,74.5,460.0,62.0,466.0,57.5,463.0,78.0,452.0,94.5,440.0,102.5,428.0,96.5,419.5,96.5,407.0,93.0,395.0,93.0,383.5,96.0,371.5,102.5,359.5,110.0,348.0,119.0,336.0,128.0,324.5,134.0,312.5,138.5,300.5,140.5,287.0,138.0,275.0,141.0,261.5,132.0,258.5,126.0,250.5,130.5,243.0,123.0,226.5,123.0,214.5,123.0,202.5,119.5,199.5" stroke="black" stroke-width="2" fill="none" />
<polyline points="118.5,219.5,130.5,230.0,141.0,227.5,145.5,244.5" stroke="black" stroke-width="2" fill="none" />
<polyline points="161.5,260.5,149.5,268.0,148.0,260.5,136.0,257.5,125.0,248.0,121.5,261.5,109.5,264.5,97.5,267.5,96.0,262.0,85.0,269.5,73.0,269.5,61.5,269.5,57.0,271.0,45.0,263.5,42.0,250.0,30.0,265.5,19.5,286.5,16.5,300.0" stroke="black" stroke-width="2" fill="none" />
<polyline points="28.5,308.0,32.0,287.0,36.5,269.0,53.0,260.0,65.0,249.5,66.5,237.0" stroke="black" stroke-width="2" fill="none" />
<polyline points="68.5,241.5,56.5,244.5" stroke="black" stroke-width="2" fill="none" />
<polyline points="53.5,243.0,65.5,226.5" stroke="black" stroke-width="2" fill="none" />
<polyline points="71.0,253.5,59.5,261.0" stroke="black" stroke-width="2" fill="none" />
<polyline points="54.0,262.0,66.0,254.0,77.5,243.5,80.5,250.0" stroke="black" stroke-width="2" fill="none" />
<polyline points="85.0,264.5,91.0,253.0,98.5,253.0,94.5,241.0,91.5,253.5,79.5,261.5,74.0,262.0,62.0,265.5,55.0,262.5,49.0,250.0,44.5,238.5,44.5,226.5,41.0,221.5,48.0,209.5,52.5,197.5,58.0,185.0,59.0,173.0,57.0,162.5,52.5,152.0,44.0,147.5" stroke="black" stroke-width="2" fill="none" />
<polyline points="44.5,144.0,50.0,156.0,55.0,168.0,52.0,180.5,46.0,192.5,40.0,204.5,34.0,216.5,32.5,228.0,32.5,240.0,35.0,251.5,30.5,264.5,24.5,277.0,20.0,286.0,19.0,298.0,16.5,310.5,15.0,322.5,16.0,335.0,14.5,347.5,11.0,360.0,8.0,372.0,8.0,384.5,3.5,396.5" stroke="black" stroke-width="2" fill="none" />
<polyline points="14.5,423.5,26.5,417.5,26.5,422.0,38.0,421.0" stroke="black" stroke-width="2" fill="none" />
<polyline points="23.5,418.5,15.0,430.5,6.0,444.5,10.5,456.5,22.5,456.5,39.0,470.0,51.5,470.0" stroke="black" stroke-width="2" fill="none" />
<polyline points="37.0,461.0,25.0,456.5,13.0,445.0" stroke="black" stroke-width="2" fill="none" />
<polyline points="5.5,445.5,17.5,464.0,30.0,468.5" stroke="black" stroke-width="2" fill="none" />
<polyline points="21.5,484.0,24.5,496.0" stroke="black" stroke-width="2" fill="none" />
<polyline points="69.0,454.0,57.0,460.0,44.5,461.5,39.0,467.5,28.5,463.0,19.0,450.5,13.0,446.5,13.0,427.0,23.5,421.0,11.0,433.0" stroke="black" stroke-width="2" fill="none" />
<polyline points="72.0,381.5,60.0,377.0,60.0,363.5" stroke="black" stroke-width="2" fill="none" />
<polyline points="63.5,354.0,75.5,375.0" stroke="black" stroke-width="2" fill="none" />
<polyline points="97.0,374.0,109.0,351.0,121.0,336.0,132.5,318.0" stroke="black" stroke-width="2" fill="none" />
<polyline points="114.5,312.0,102.5,301.5" stroke="black" stroke-width="2" fill="none" />
<polyline points="108.0,303.0,115.5,315.5" stroke="black" stroke-width="2" fill="none" />
<polyline points="123.0,344.0,136.0,336.0,134.5,347.5,134.0,359.5,132.5,371.5,131.0,383.5,137.0,394.0,137.5,403.0,140.5,415.0,150.5,410.5" stroke="black" stroke-width="2" fill="none" />
<polyline points="140.5,406.5,142.5,409.5,145.5,399.0,143.0,387.5,144.0,375.0,137.0,372.0,143.0,360.0,147.5,350.5,144.5,363.0" stroke="black" stroke-width="2" fill="none" />
<polyline points="136.5,370.0,150.0,364.0,147.0,376.5,146.0,388.5,155.0,399.0" stroke="black" stroke-width="2" fill="none" />
<polyline points="185.5,423.0,190.0,435.0" stroke="black" stroke-width="2" fill="none" />
<polyline points="208.5,405.5,198.0,394.0,190.5,382.0,189.0,369.5,198.0,368.0,189.0,362.0,187.5,349.0,185.0,344.5,194.0,333.0,176.0,335.5,187.0,323.5,185.5,312.0,182.5,299.5,178.0,287.5,171.0,275.0,162.0,261.5,160.5,251.0,154.5,242.5,150.5,235.0,143.0,229.0,143.0,217.5,143.0,205.5,138.0,199.0,136.5,187.0,124.0,175.0,112.0,173.5,103.0,169.0,111.0,157.0,125.0,148.5,126.5,144.0,125.0,132.0,123.0,120.0,123.0,109.0,132.0,102.5,114.0,90.5,102.0,93.5" stroke="black" stroke-width="2" fill="none" />
<polyline points="101.5,93.0,94.0,105.0,100.5,117.0,105.0,123.5,88.5,129.5,85.0,142.0,94.0,145.0,92.0,155.5,98.0,167.5,98.0,177.0,98.0,189.0,94.5,196.5,88.5,207.5,88.5,219.5,81.0,231.5,72.0,247.5,59.0,260.0,65.0,273.5,69.5,282.5,57.5,289.5,45.5,301.5,38.0,313.5,24.0,324.0,19.5,319.0,18.0,328.0,36.0,314.5,48.5,297.5,60.5,286.5,75.5,279.0,87.5,273.5,95.0,258.5,110.0,240.5,117.5,242.0,117.5,231.5,128.5,231.5,137.5,240.5,146.5,252.5,154.0,253.0" stroke="black" stroke-width="2" fill="none" />
<polyline points="108.5,246.5,104.0,246.0,104.0,258.5,94.5,264.5,101.0,281.0,95.0,293.0,90.5,305.0,90.5,314.0,89.0,326.0,90.0,338.5,97.5,350.0" stroke="black" stroke-width="2" fill="none" />
<polyline points="85.5,341.5,85.5,353.5,83.0,365.0,81.5,377.0,80.5,389.0" stroke="black" stroke-width="2" fill="none" />
<polyline points="112.0,402.5,112.0,390.5,109.0,365.0" stroke="black" stroke-width="2" fill="none" />
<polyline points="110.5,361.5,112.0,373.5,109.0,385.5,109.0,397.5,108.0,409.5" stroke="black" stroke-width="2" fill="none" />
<polyline points="109.5,419.0,97.5,424.5,99.0,418.5,102.0,417.0,99.5,405.0,96.5,392.5,99.5,380.0,103.0,368.0,111.0,356.0,118.5,344.5,117.0,346.0,105.0,364.5" stroke="black" stroke-width="2" fill="none" />
<polyline points="121.5,345.5,121.5,357.5,121.5,369.5,114.0,384.5,113.5,396.5,112.5,408.5,109.0,420.5,111.0,440.0,129.0,451.5" stroke="black" stroke-width="2" fill="none" />
<polyline points="196.0,484.5,190.0,496.5,182.0,492.0,193.5,483.5,205.5,485.5,217.0,491.5,233.5,488.5,246.0,484.5" stroke="black" stroke-width="2" fill="none" />
<polyline points="246.5,477.5,245.5,466.0,244.0,454.0,242.5,448.0,240.5,435.5" stroke="black" stroke-width="2" fill="none" />
<polyline points="192.0,438.0,187.5,423.0,175.0,416.5,172.0,416.5,168.0,407.5,156.0,404.0,158.0,414.0,158.5,418.5,161.5,412.5,173.0,400.5,171.5,385.5,167.5,372.0,163.0,364.5,159.5,352.5,153.5,339.0,140.0,327.5,138.5,317.5,143.0,305.5,149.0,302.5" stroke="black" stroke-width="2" fill="none" />
<polyline points="71.5,326.5,73.0,338.5,75.5,350.5" stroke="black" stroke-width="2" fill="none" />
<polyline points="64.0,352.5,65.5,364.5" stroke="black" stroke-width="2" fill="none" />
<polyline points="59.0,352.5,59.0,357.0,63.5,369.0,66.5,372.0,66.5,384.0,58.0,391.0" stroke="black" stroke-width="2" fill="none" />
<polyline points="64.0,412.5,53.5,417.0,46.0,410.0,59.0,398.5,60.5,406.5,50.5,415.5,35.0,407.5,23.0,412.0,11.5,421.5,17.5,415.5,31.0,403.0,32.0,391.5,35.0,379.5,40.5,365.0,42.0,353.0,42.0,341.0,43.0,329.0,44.5,317.0,49.0,305.0,44.5,312.5" stroke="black" stroke-width="2" fill="none" />
<polyline points="55.5,303.5,52.0,316.0,49.0,325.0,49.0,337.0,47.5,348.5,44.5,360.5,40.0,380.0,35.5,389.5,43.5,401.5,55.5,395.5,69.0,389.5" stroke="black" stroke-width="2" fill="none" />
<polyline points="36.0,374.0,37.5,366.5,37.5,354.0,35.0,342.0" stroke="black" stroke-width="2" fill="none" />
<polyline points="70.5,324.5,59.0,336.5,53.0,351.5,65.0,329.0,67.5,322.5,79.0,336.5" stroke="black" stroke-width="2" fill="none" />
<polyline points="77.0,370.5,80.0,359.0,81.0,347.0,79.5,335.0,76.5,323.0,70.5,311.0,67.5,299.0" stroke="black" stroke-width="2" fill="none" />
<polyline points="53.5,275.5,41.5,287.5,25.0,320.5,32.5,308.5,35.5,300.5,37.0,287.0,31.5,288.5,36.5,278.0,36.0,269.5,44.5,256.0,40.0,244.0,36.5,232.0,39.5,217.0" stroke="black" stroke-width="2" fill="none" />
<polyline points="34.0,215.5,46.0,191.5,53.0,187.5,47.0,200.0,42.0,212.0,47.5,226.0,52.0,227.5,72.5,229.0,84.5,226.5" stroke="black" stroke-width="2" fill="none" />
<polyline points="100.5,164.0,93.0,164.5,86.0,159.5,74.0,159.5" stroke="black" stroke-width="2" fill="none" />
<polyline points="71.5,141.0,83.5,127.5,99.0,121.5,106.0,121.5" stroke="black" stroke-width="2" fill="none" />
<polyline points="104.0,140.0,116.0,146.0" stroke="black" stroke-width="2" fill="none" />
<polyline points="136.5,153.5,124.5,155.0,109.5,150.0,97.5,150.0,85.5,154.5,80.0,142.5,71.5,157.5,71.5,145.5,76.5,133.5,78.0,121.5,81.0,110.0,87.5,98.0,103.5,92.0,91.5,98.0" stroke="black" stroke-width="2" fill="none" />
<polyline points="89.5,112.0,104.5,102.0,96.5,114.0,105.5,116.5,114.0,107.0,123.0,108.0,135.0,103.0" stroke="black" stroke-width="2" fill="none" />
<polyline points="165.0,103.5,177.0,114.0,189.0,116.5" stroke="black" stroke-width="2" fill="none" />
<polyline points="192.5,105.5,180.5,110.0,168.5,95.0" stroke="black" stroke-width="2" fill="none" />
<polyline points="169.5,95.0,177.0,107.0,192.0,107.0" stroke="black" stroke-width="2" fill="none" />
<polyline points="180.0,115.0,166.5,102.5" stroke="black" stroke-width="2" fill="none" />
<polyline points="195.5,77.5,195.5,89.5,195.5,77.5" stroke="black" stroke-width="2" fill="none" />
<polyline points="129.5,63.0,117.5,57.0,104.0,61.5,92.0,56.5,80.0,63.0,62.5,73.5,64.0,64.5,67.0,49.5,58.0,39.0,49.0,26.5,44.5,27.0,47.5,12.0,52.0,12.0,47.0,9.0" stroke="black" stroke-width="2" fill="none" />
<polyline points="45.0,18.0,57.0,7.5,69.5,8.5,81.0,12.5,87.0,27.5,90.0,39.5" stroke="black" stroke-width="2" fill="none" />
<polyline points="90.5,35.0,102.5,45.5" stroke="black" stroke-width="2" fill="none" />
<polyline points="95.0,62.5,99.5,61.5,78.5,64.5,72.5,78.0,72.0,78.0" stroke="black" stroke-width="2" fill="none" />
<polyline points="69.0,64.5,60.0,67.5,48.0,66.0,36.0,58.5" stroke="black" stroke-width="2" fill="none" />
<polyline points="57.0,37.0,45.0,26.0" stroke="black" stroke-width="2" fill="none" />
<polyline points="69.0,7.5,73.5,9.0,90.5,28.5,102.5,39.0" stroke="black" stroke-width="2" fill="none" />
<polyline points="123.0,56.5,135.0,68.5,139.5,80.5,139.5,93.0,135.5,105.0,132.5,117.0,129.0,120.0,127.5,124.5,130.5,136.5,135.0,143.0,129.0,146.0,131.5,158.5,119.5,170.5,134.5,179.5,130.0,200.0,127.0,212.0,125.5,224.0,134.5,233.5,145.5,245.5,154.5,257.5,153.0,263.5,159.0,275.5,150.0,281.5,158.0,295.0,168.5,307.0,167.0,317.0,168.5,329.5,169.5,341.0,175.5,344.0,174.0,356.0,169.0,368.0,163.5,371.0,166.5,383.0,174.5,384.5,179.0,396.5,175.0,409.0,179.0,417.5,181.5,429.5,189.0,441.5,184.5,450.5,189.0,459.5,197.0,456.5,198.5,452.0" stroke="black" stroke-width="2" fill="none" />
<polyline points="315.5,256.0,317.5,244.0,317.0,232.5" stroke="black" stroke-width="2" fill="none" />
<polyline points="325.0,215.5,328.0,227.5,331.0,239.5,326.5,239.5,326.5,253.0,323.5,265.5,321.5,277.5,321.0,297.5,313.5,309.5,302.5,321.0,299.5,330.0,296.5,322.0,309.0,314.5,321.5,295.0,342.5,273.5,352.5,264.5,360.0,251.0" stroke="black" stroke-width="2" fill="none" />
<polyline points="489.5,392.5,479.0,400.0,467.0,400.0,454.5,401.5,442.5,397.0,433.0,386.5,421.0,385.0,409.0,381.5,405.0,370.5,390.0,375.0,378.5,376.0,389.0,367.0,387.0,355.0,388.5,349.0,397.5,337.5,397.0,325.5,398.5,314.0,406.0,302.0,410.0,290.5,420.5,277.0,420.0,265.5,426.0,259.5,430.5,247.5,440.0,238.5,437.0,228.0,435.5,216.0,450.5,213.0,450.5,201.0,449.0,188.5,437.0,184.0,443.5,172.0,437.5,173.5,443.5,160.0,448.0,148.0,449.5,136.0,460.5,129.5,451.5,119.5,438.0,111.5,453.0,105.5,456.0,96.0,463.5,90.0,451.0,78.0" stroke="black" stroke-width="2" fill="none" />
<polyline points="439.0,66.0,455.5,78.0,467.5,90.0,475.5,102.0,481.5,114.0,483.0,126.0,483.0,138.0,480.0,149.5,471.5,161.5,462.5,163.0,464.0,163.5,475.5,150.0" stroke="black" stroke-width="2" fill="none" />
<polyline points="424.0,63.5,433.0,63.5,443.5,75.0,427.5,82.5,450.0,85.0,436.5,89.5,425.0,97.0,442.0,110.5,445.5,126.0,435.5,138.5,429.5,146.0,406.5,156.5,405.0,172.5,412.0,180.0,397.0,181.5,394.0,195.0,386.5,206.5,384.5,218.5,385.0,230.5,385.0,242.5,386.5,254.0,386.0,266.5,369.5,278.5,345.5,281.5,357.5,266.5,366.5,247.0,362.0,259.0,353.0,271.5,345.5,283.5,335.5,292.5,342.5,297.0,338.0,303.0,346.0,307.0,362.0,311.5,369.5,320.0,366.5,331.5,366.5,344.0,365.0,357.5,371.5,365.0,370.0,377.0,377.5,377.5,379.0,374.5,385.0,383.5,388.0,368.5,396.5,363.5,404.0,367.0,408.5,361.0,428.0,372.5,428.0,377.0,447.0,381.5,454.5,389.0,466.5,389.0,472.5,380.0,480.0,360.5,483.0,363.0" stroke="black" stroke-width="2" fill="none" />
<polyline points="468.0,134.5,456.5,146.5,450.5,142.0,436.0,149.5,424.5,149.5,421.5,145.0,409.5,143.5,404.0,163.0,392.0,167.5,389.0,163.0,372.0,154.0,367.0,141.5,366.5,129.5,366.5,117.5,369.5,106.0,378.0,94.0,388.5,82.5,409.5,73.5,421.5,61.5" stroke="black" stroke-width="2" fill="none" />
<polyline points="421.0,57.5,400.0,70.0,383.5,82.0,373.0,94.0,366.5,105.5,362.5,117.5,362.0,129.5,362.5,142.0,367.0,153.5,381.0,165.5,388.5,154.5,394.5,141.5,403.5,132.5,399.0,142.0,411.0,141.0,411.0,136.5,412.0,129.0,425.0,121.0,437.0,120.5,437.5,124.0,445.0,125.5,451.0,137.0,458.5,131.0,466.0,122.5,467.5,117.0" stroke="black" stroke-width="2" fill="none" />
<polyline points="479.5,44.0,482.0,41.5,470.0,50.5,463.0,51.0,458.5,39.5,464.0,39.5,459.5,32.0" stroke="black" stroke-width="2" fill="none" />
<polyline points="440.0,14.0,450.5,2.0,441.5,2.5,438.5,14.5,434.5,27.5,420.0,35.0" stroke="black" stroke-width="2" fill="none" />
<polyline points="417.5,45.5,425.5,38.5,413.5,46.0,403.0,48.0,397.0,42.0,398.5,30.0,407.0,18.0,402.5,6.5,398.0,23.5" stroke="black" stroke-width="2" fill="none" />
<polyline points="407.0,2.5,408.5,14.5,402.0,29.5,402.0,41.5,410.0,44.5,421.5,32.5,434.0,24.5" stroke="black" stroke-width="2" fill="none" />
<polyline points="296.0,9.5,290.0,21.5,286.5,30.0,277.0,42.5,283.0,54.5,283.0,67.0,285.5,79.0,288.0,88.0,291.0,100.5,288.0,112.5,297.0,116.0,292.5,117.5,289.5,129.5,291.5,141.5,282.5,145.0,284.0,156.0,290.5,156.0,286.0,165.0,293.5,177.0,287.5,187.5,296.0,192.5,302.5,201.0,301.0,208.5,298.5,219.0,289.5,225.0,286.5,234.0,295.5,236.5,296.5,248.5,292.0,250.0,306.0,253.0,300.0,259.0,300.0,271.0,292.0,272.5,289.0,284.0,278.5,291.5,275.5,296.0,269.0,308.0,265.0,320.0,261.5,331.5,257.0,349.5" stroke="black" stroke-width="2" fill="none" />
<polyline points="129.0,145.0,112.0,136.0,99.0,139.0,87.0,136.0" stroke="black" stroke-width="2" fill="none" />
<polyline points="55.0,153.0,43.0,144.0" stroke="black" stroke-width="2" fill="none" />
<polyline points="41.5,98.0,29.5,89.0" stroke="black" stroke-width="2" fill="none" />
<polyline points="29.5,88.0,43.0,100.5" stroke="black" stroke-width="2" fill="none" />
<polyline points="14.5,184.5,22.0,196.5" stroke="black" stroke-width="2" fill="none" />
<polyline points="27.0,201.5,14.5,185.0" stroke="black" stroke-width="2" fill="none" />
<polyline points="71.0,7.5,82.5,11.5" stroke="black" stroke-width="2" fill="none" />
<polyline points="272.5,31.5,269.5,43.5,266.5,55.5,253.0,72.0,248.5,84.0,256.0,88.0,254.5,100.0,251.5,112.0,247.0,118.0,241.5,131.0,231.0,137.0,235.5,149.0,243.0,156.5,238.5,167.0,235.5,177.5,230.0,189.5,224.0,201.0,220.0,213.0,219.0,224.5,219.5,236.5,218.0,248.5,215.0,260.5,222.5,272.0,223.5,284.5,228.0,297.0,244.5,306.0,239.5,314.0,240.0,321.5,238.5,329.0,241.0,341.5,250.5,353.5,256.0,364.0,255.0,376.0,249.5,380.5,248.5,389.0,262.5,398.0,252.0,401.0,261.0,405.0,268.5,417.0,269.0,429.0,263.0,448.5,263.5,460.5,263.0,472.0,254.0,476.5,260.0,489.0,266.0,496.5,278.0,484.5,289.5,487.5" stroke="black" stroke-width="2" fill="none" />
<polyline points="46.0,670.0,34.0,667.0,22.0,672.5,13.0,672.0,1.0,672.0" stroke="black" stroke-width="2" fill="none" />
<polyline points="1.5,661.0,13.5,662.5,13.0,646.0" stroke="black" stroke-width="2" fill="none" />
</svg>